<svg width="136" height="14" viewBox="0 0 136 14" fill="none" xmlns="http://www.w3.org/2000/svg">
<path d="M5.02637 0C6.82666 2.45601e-05 8.70698 0.578821 9.96582 1.92188L10.209 2.20117L10.2119 2.20605C10.3012 2.32128 10.3915 2.44054 10.4551 2.57812C10.522 2.72296 10.5566 2.87778 10.5566 3.06445C10.5566 3.88683 9.77086 4.47363 9.02832 4.47363C8.77579 4.47357 8.56868 4.42522 8.37793 4.33203C8.19338 4.24183 8.0361 4.11443 7.88086 3.97852L7.87305 3.97266C7.3931 3.52295 7.01026 3.21321 6.58789 3.01172C6.1709 2.81288 5.69634 2.71095 5.02637 2.71094C4.56813 2.71099 4.06082 2.79592 3.67871 2.99902C3.30884 3.19576 3.07252 3.48985 3.07227 3.93652C3.07227 4.40552 3.43883 4.73039 4.06152 4.96289C4.66986 5.1899 5.40341 5.28062 5.90332 5.34375C7.17093 5.49651 8.5214 5.79662 9.56055 6.45508C10.6177 7.12507 11.3456 8.16377 11.3457 9.74219C11.3457 11.2745 10.6807 12.3548 9.66504 13.041C8.66295 13.7179 7.33838 14 6.01367 14C3.78801 14 1.16515 13.3926 0.181641 11.0205L0.177734 11.0127L0.178711 11.0117C0.11771 10.8502 0.0713367 10.6748 0.0712891 10.4727C0.0712891 9.59085 0.878694 8.92113 1.70605 8.9209C2.15951 8.9209 2.4629 9.09651 2.6875 9.35547H2.68848C2.8169 9.48295 2.91836 9.62761 3.0127 9.77734C3.10327 9.92113 3.18276 10.046 3.29199 10.1699L3.29785 10.1768L3.30469 10.1846C3.51218 10.4563 3.7682 10.7177 4.17188 10.9141C4.5787 11.1118 5.15512 11.2529 6.01367 11.2529C6.57852 11.2529 7.17399 11.1705 7.61816 10.9414C7.83692 10.8285 8.01243 10.6838 8.13281 10.5029C8.25189 10.324 8.32711 10.095 8.32715 9.7959C8.32715 9.29415 7.92048 8.94276 7.23926 8.68848C6.57571 8.44084 5.77827 8.33579 5.24219 8.26367V8.2627C4.05207 8.11053 2.75184 7.8485 1.74512 7.24121C0.717837 6.62143 0.00011762 5.64365 0 4.11523C0.000141087 2.71457 0.634538 1.67375 1.58887 0.992188C2.53404 0.317324 3.78244 6.69488e-05 5.02637 0ZM35.3564 0C39.4124 0 42.5371 2.9991 42.5371 7C42.5371 9.06801 41.8084 10.8228 40.5352 12.0605C39.2624 13.2976 37.4638 14 35.3564 14C33.2411 13.9999 31.4296 13.3028 30.1455 12.0684C28.8605 10.833 28.1221 9.07769 28.1221 7C28.1221 2.97868 31.2855 0.000158617 35.3564 0ZM81.8164 0C85.8724 0 88.9971 2.9991 88.9971 7C88.9971 9.06796 88.2683 10.8228 86.9951 12.0605C85.7224 13.2976 83.9238 14 81.8164 14C79.701 14 77.8896 13.3028 76.6055 12.0684C75.3205 10.833 74.582 9.07772 74.582 7C74.582 2.97859 77.7453 2.14058e-05 81.8164 0ZM97.9326 0C101.988 0.000110246 105.113 2.99917 105.113 7C105.113 9.06802 104.385 10.8228 103.111 12.0605C101.839 13.2977 100.04 14 97.9326 14C95.8174 13.9999 94.0058 13.3027 92.7217 12.0684C91.4367 10.833 90.6992 9.07766 90.6992 7C90.6992 2.97867 93.8617 0.000145287 97.9326 0ZM24.3018 0.160156C25.1578 0.160371 25.8114 0.768546 25.8115 1.60449V12.3418C25.8115 13.1826 25.1712 13.8396 24.3018 13.8398C23.8682 13.8398 23.4867 13.6865 23.2139 13.4131C22.9415 13.14 22.792 12.7621 22.792 12.3418V8.55176H16.2988V12.3604C16.2986 13.2265 15.6514 13.8396 14.79 13.8398C13.9411 13.8398 13.2981 13.2036 13.2979 12.3604V1.60449C13.298 0.773574 13.9285 0.160205 14.79 0.160156C15.2177 0.16025 15.5976 0.300554 15.8721 0.561523C16.1475 0.823549 16.2988 1.19035 16.2988 1.60449V5.92969H22.792V1.60449C22.7921 1.19041 22.9434 0.823542 23.2188 0.561523C23.4933 0.300449 23.8739 0.160206 24.3018 0.160156ZM57.665 0.160156C58.0099 0.160227 58.3508 0.258337 58.6113 0.462891C58.878 0.672299 59.0487 0.985242 59.0488 1.37305C59.0488 1.50428 59.0266 1.64881 59.0068 1.74707L59.0049 1.75684L56.3848 12.5303V12.5322C56.1943 13.288 55.5141 13.8398 54.7207 13.8398C53.9701 13.8395 53.2014 13.3459 53.0049 12.5684L51.3916 6.33789C51.0766 7.47558 50.7673 8.61643 50.46 9.73926H50.4609C50.2916 10.374 50.1042 10.9231 49.96 11.5312C49.9065 11.761 49.8504 12.0023 49.7754 12.2441C49.7156 12.4929 49.6194 12.7404 49.5029 12.9521C49.2008 13.5438 48.6552 13.8398 48.0088 13.8398C47.203 13.8396 46.5194 13.3104 46.3281 12.5303L46.3271 12.5283L43.7793 1.77344L43.7773 1.76465V1.76367C43.7576 1.66537 43.7363 1.52149 43.7363 1.39062C43.7364 0.992554 43.8966 0.672849 44.166 0.458984C44.4278 0.251386 44.771 0.160156 45.1201 0.160156C45.5632 0.160212 45.9472 0.294679 46.252 0.538086C46.5166 0.749667 46.7117 1.03493 46.8369 1.36328L46.8867 1.50781V1.50879C47.1601 2.41311 47.3263 3.37896 47.5205 4.29004L48.1768 7.3125L49.7207 1.39453L49.7227 1.38965C49.9374 0.62332 50.6072 0.160481 51.4004 0.160156C52.2184 0.160156 52.7719 0.662386 53.0361 1.34766L53.0381 1.35352C53.3668 2.25961 53.5536 3.23163 53.7812 4.13574L54.3477 6.27441C54.4426 6.63008 54.5404 6.9858 54.6367 7.34277L55.874 1.54883L55.875 1.54492C56.0663 0.702462 56.7928 0.160156 57.665 0.160156ZM68.375 0.160156C69.7735 0.160262 70.9765 0.470428 71.833 1.18262C72.6978 1.90204 73.168 2.99677 73.168 4.47168C73.1679 5.40539 72.977 6.26582 72.5293 6.9707C72.1304 7.59859 71.5369 8.08552 70.7324 8.39258C70.8826 8.64505 71.0332 8.89743 71.1846 9.14941L71.8174 10.1885V10.1895C72.1515 10.7319 72.5372 11.284 72.8604 11.8623L72.9941 12.1123L72.9961 12.1152C73.0818 12.2853 73.204 12.5184 73.2041 12.8047C73.2041 13.1874 73.0207 13.4625 72.7568 13.6289C72.5078 13.7858 72.1999 13.8398 71.9277 13.8398C71.0723 13.8398 70.2951 13.3578 69.8398 12.71L69.8359 12.7051C69.6497 12.4279 69.4881 12.1432 69.335 11.8662C69.1802 11.5862 69.0359 11.3168 68.8779 11.0557C68.4205 10.2992 67.9479 9.56008 67.4707 8.80078H65.2891V12.3604C65.2888 13.2265 64.6417 13.8397 63.7803 13.8398C63.349 13.8398 62.9711 13.6925 62.7012 13.4219C62.4318 13.1518 62.2892 12.7781 62.2891 12.3604V2.5127C62.2891 1.81644 62.532 1.22223 62.9727 0.802734C63.4123 0.384504 64.0267 0.160286 64.7305 0.160156H68.375ZM119.918 0.160156C120.49 0.160261 120.995 0.350398 121.359 0.698242C121.724 1.04715 121.929 1.53829 121.929 2.10352V12.3955C121.929 13.2264 121.282 13.8397 120.456 13.8398C119.63 13.8397 118.983 13.2264 118.982 12.3955V5.60938L116.331 12.6855V12.6865C116.076 13.3603 115.383 13.8397 114.659 13.8398C114.04 13.8397 113.564 13.5565 113.231 13.0615L113.229 13.0566C113.09 12.8404 112.989 12.6027 112.904 12.418L112.901 12.4102C112.807 12.186 112.732 11.9623 112.661 11.75V11.749L111.804 9.46387C111.329 8.22099 110.853 6.97019 110.372 5.7168V12.3955C110.372 13.2264 109.724 13.8397 108.898 13.8398C108.067 13.8398 107.443 13.2212 107.443 12.3955V2.06738C107.443 1.45807 107.658 0.969023 108.047 0.636719C108.43 0.309776 108.953 0.160178 109.526 0.160156C110.07 0.160183 110.539 0.30299 110.926 0.574219C111.311 0.844214 111.599 1.23036 111.803 1.69238L111.804 1.69434C112.237 2.69718 112.586 3.75157 112.975 4.76758L113.469 6.07812C113.871 7.15287 114.265 8.22838 114.646 9.30371C115.464 7.09298 116.301 4.87509 117.096 2.6543H117.097C117.336 1.98653 117.575 1.35424 117.989 0.898438C118.423 0.421754 119.023 0.160165 119.918 0.160156ZM134.688 0.160156C135.083 0.16019 135.419 0.294891 135.654 0.542969C135.887 0.78899 136 1.12299 136 1.48047C136 2.06725 135.793 2.54998 135.462 2.99414L135.459 2.99707C135.095 3.46645 134.695 3.91641 134.28 4.34668H134.281C134.082 4.57165 133.877 4.79209 133.676 5.00977C133.474 5.22802 133.274 5.44421 133.079 5.66406L133.078 5.66504C131.429 7.51608 129.773 9.33094 128.141 11.2002H134.688C135.456 11.2003 136 11.7923 136 12.5195C136 13.247 135.456 13.8398 134.688 13.8398H125.248C124.846 13.8398 124.506 13.6921 124.269 13.4336C124.034 13.1781 123.918 12.833 123.918 12.4658C123.918 11.8652 124.105 11.4007 124.457 10.9346L124.459 10.9316C125.181 9.99993 126.073 9.14652 126.821 8.30078L126.822 8.29883C128.483 6.45318 130.128 4.59105 131.759 2.72852H125.499C125.122 2.72851 124.786 2.59952 124.544 2.3623C124.302 2.12471 124.169 1.79465 124.169 1.42676C124.169 0.692749 124.773 0.160176 125.499 0.160156H134.688ZM6.01367 13.7314C6.17378 13.7314 6.33346 13.7264 6.49219 13.7178C6.33348 13.7264 6.17377 13.7314 6.01367 13.7314ZM36.0986 13.6992C35.8564 13.7196 35.6087 13.7314 35.3564 13.7314C35.6088 13.7314 35.8564 13.7196 36.0986 13.6992ZM34.6094 13.6992C34.7299 13.7093 34.8516 13.7175 34.9746 13.7227C34.8516 13.7175 34.7299 13.7093 34.6094 13.6992ZM82.5566 13.6992C82.3149 13.7195 82.0681 13.7314 81.8164 13.7314C82.0681 13.7314 82.3149 13.7195 82.5566 13.6992ZM98.6748 13.6992C98.4325 13.7196 98.185 13.7314 97.9326 13.7314C98.1849 13.7314 98.4326 13.7196 98.6748 13.6992ZM4.76074 13.6602C5.0395 13.6927 5.31975 13.7137 5.59766 13.7236C5.31966 13.7137 5.03959 13.6927 4.76074 13.6602ZM97.1875 13.6992C97.3074 13.7092 97.4284 13.7176 97.5508 13.7227C97.4284 13.7176 97.3074 13.7092 97.1875 13.6992ZM6.56641 13.7119C6.70042 13.7034 6.83367 13.6926 6.96582 13.6777C6.83367 13.6926 6.70042 13.7034 6.56641 13.7119ZM36.1816 13.6904C36.2775 13.6814 36.3726 13.6723 36.4668 13.6602C36.3726 13.6723 36.2775 13.6814 36.1816 13.6904ZM98.7578 13.6904C98.8537 13.6814 98.9488 13.6723 99.043 13.6602C98.9488 13.6723 98.8537 13.6814 98.7578 13.6904ZM82.6689 13.6885C82.7556 13.68 82.8415 13.6712 82.9268 13.6602C82.8415 13.6712 82.7556 13.68 82.6689 13.6885ZM34.2744 13.665C34.3168 13.6703 34.3596 13.6731 34.4023 13.6777C34.3596 13.6731 34.3168 13.6703 34.2744 13.665ZM80.7344 13.665C80.769 13.6693 80.804 13.6719 80.8389 13.6758C80.804 13.6719 80.769 13.6693 80.7344 13.665ZM96.8506 13.665C96.8853 13.6693 96.9202 13.6719 96.9551 13.6758C96.9202 13.6719 96.8853 13.6693 96.8506 13.665ZM4.37012 13.6055C4.49173 13.625 4.61388 13.6416 4.73633 13.6562C4.61388 13.6416 4.49172 13.625 4.37012 13.6055ZM7.16309 13.6494C7.24386 13.6382 7.32457 13.629 7.4043 13.6152C7.32457 13.629 7.24386 13.6382 7.16309 13.6494ZM33.8926 13.6084C33.9607 13.6201 34.0295 13.6296 34.0986 13.6396C34.0295 13.6296 33.9607 13.6201 33.8926 13.6084ZM80.3564 13.6094C80.4214 13.6205 80.487 13.6291 80.5527 13.6387C80.487 13.6291 80.4214 13.6205 80.3564 13.6094ZM96.4727 13.6094C96.5376 13.6205 96.6032 13.6291 96.6689 13.6387C96.6032 13.6291 96.5376 13.6205 96.4727 13.6094ZM36.667 13.6309C36.7078 13.6246 36.7486 13.6192 36.7891 13.6123C36.7486 13.6192 36.7078 13.6246 36.667 13.6309ZM83.1396 13.6289C83.1762 13.6232 83.2128 13.6185 83.249 13.6123C83.2128 13.6185 83.1762 13.6232 83.1396 13.6289ZM99.2559 13.6289C99.2924 13.6232 99.329 13.6185 99.3652 13.6123C99.329 13.6185 99.2924 13.6232 99.2559 13.6289ZM33.5645 13.5449C33.648 13.5629 33.7323 13.5793 33.8174 13.5947C33.7323 13.5793 33.648 13.5629 33.5645 13.5449ZM80.0254 13.5449C80.1003 13.5611 80.1758 13.5758 80.252 13.5898C80.1758 13.5758 80.1003 13.5611 80.0254 13.5449ZM96.1416 13.5449C96.2165 13.5611 96.292 13.5758 96.3682 13.5898C96.292 13.5758 96.2165 13.5611 96.1416 13.5449ZM3.97656 13.5322C4.05818 13.5494 4.14031 13.5644 4.22266 13.5791C4.14031 13.5644 4.05818 13.5494 3.97656 13.5322ZM14.542 13.5469C14.5807 13.5541 14.62 13.5607 14.6602 13.5645H14.6611C14.6206 13.5607 14.581 13.5541 14.542 13.5469ZM37.0059 13.5703C37.0529 13.5609 37.0999 13.5522 37.1465 13.542C37.0999 13.5522 37.0529 13.5609 37.0059 13.5703ZM71.3877 13.4971C71.5176 13.5323 71.6513 13.5568 71.7871 13.5664C71.8337 13.5697 71.8806 13.5703 71.9277 13.5703L71.7871 13.5654C71.6512 13.5559 71.5177 13.5323 71.3877 13.4971ZM71.9277 13.5703C71.9855 13.5703 72.0437 13.5674 72.1016 13.5615C72.0437 13.5674 71.9855 13.5703 71.9277 13.5703ZM83.4746 13.5693C83.5188 13.5605 83.5627 13.5516 83.6064 13.542C83.5627 13.5516 83.5188 13.5605 83.4746 13.5693ZM99.5908 13.5693C99.635 13.5605 99.6789 13.5516 99.7227 13.542C99.6789 13.5516 99.635 13.5605 99.5908 13.5693ZM108.654 13.5479C108.691 13.5547 108.728 13.5607 108.766 13.5645C108.728 13.5607 108.691 13.5547 108.654 13.5479ZM120.101 13.5225C120.172 13.5425 120.246 13.5569 120.323 13.5645C120.246 13.5569 120.172 13.5425 120.101 13.5225ZM63.5205 13.5479C63.5559 13.5541 63.592 13.5589 63.6289 13.5625C63.592 13.5589 63.5559 13.5541 63.5205 13.5479ZM14.9795 13.5566C15.0015 13.5538 15.0234 13.5517 15.0449 13.5479C15.0234 13.5517 15.0015 13.5538 14.9795 13.5566ZM63.9736 13.5566C63.9937 13.554 64.0136 13.5513 64.0332 13.5479C64.0135 13.5513 63.9937 13.554 63.9736 13.5566ZM72.1738 13.5498C72.2087 13.5446 72.2433 13.5398 72.2773 13.5322C72.2433 13.5398 72.2087 13.5446 72.1738 13.5498ZM120.703 13.5479C120.698 13.5488 120.693 13.549 120.688 13.5498C120.733 13.5419 120.778 13.5329 120.82 13.5205L120.703 13.5479ZM63.3955 13.5195C63.4304 13.5293 63.4663 13.537 63.5029 13.5439C63.4663 13.537 63.4304 13.5292 63.3955 13.5195ZM64.0645 13.542C64.0963 13.5356 64.1275 13.5281 64.1582 13.5195C64.1275 13.5281 64.0963 13.5356 64.0645 13.542ZM108.548 13.5234C108.573 13.5306 108.6 13.5364 108.626 13.542C108.6 13.5364 108.573 13.5306 108.548 13.5234ZM114.939 13.541C114.954 13.538 114.969 13.5347 114.983 13.5312C114.969 13.5347 114.954 13.538 114.939 13.541ZM15.0908 13.5381C15.1132 13.5333 15.1354 13.5283 15.1572 13.5225C15.1354 13.5283 15.1132 13.5333 15.0908 13.5381ZM14.4346 13.5225C14.4545 13.528 14.4747 13.5325 14.4951 13.5371C14.4747 13.5325 14.4545 13.528 14.4346 13.5225ZM55.0225 13.5371C55.0405 13.5332 55.0584 13.529 55.0762 13.5244C55.0584 13.529 55.0405 13.5332 55.0225 13.5371ZM7.80469 13.5342C7.82624 13.5291 7.84769 13.5238 7.86914 13.5186C7.84769 13.5238 7.82624 13.5291 7.80469 13.5342ZM63.2861 13.4834C63.3194 13.4961 63.3535 13.5076 63.3887 13.5176C63.3535 13.5076 63.3194 13.4961 63.2861 13.4834ZM55.1055 13.5156C55.1321 13.5081 55.1585 13.5002 55.1846 13.4912C55.1585 13.5002 55.1321 13.5081 55.1055 13.5156ZM64.1709 13.5156C64.2025 13.5065 64.2334 13.4967 64.2637 13.4854C64.2334 13.4967 64.2025 13.5065 64.1709 13.5156ZM72.3418 13.5137C72.3756 13.5043 72.4092 13.4956 72.4414 13.4834C72.4092 13.4956 72.3756 13.5042 72.3418 13.5137ZM33.2373 13.4668C33.2964 13.4823 33.3561 13.4966 33.416 13.5107C33.3561 13.4966 33.2964 13.4823 33.2373 13.4668ZM79.7031 13.4688C79.7603 13.4837 79.818 13.497 79.876 13.5107C79.818 13.497 79.7603 13.4837 79.7031 13.4688ZM95.8193 13.4688C95.8765 13.4837 95.9343 13.497 95.9922 13.5107C95.9343 13.497 95.8765 13.4837 95.8193 13.4688ZM108.437 13.4854C108.459 13.494 108.481 13.5024 108.504 13.5098C108.481 13.5024 108.459 13.494 108.437 13.4854ZM15.2061 13.5068C15.2291 13.4996 15.2521 13.4928 15.2744 13.4844C15.2521 13.4928 15.2291 13.4996 15.2061 13.5068ZM135.06 13.5068C135.072 13.5022 135.085 13.4973 135.098 13.4922C135.085 13.4973 135.072 13.5022 135.06 13.5068ZM14.3291 13.4873C14.3455 13.4935 14.3621 13.4994 14.3789 13.5049C14.3621 13.4994 14.3455 13.4935 14.3291 13.4873ZM119.991 13.4854C120.006 13.4912 120.022 13.4967 120.037 13.502C120.022 13.4967 120.006 13.4912 119.991 13.4854ZM37.333 13.498C37.3818 13.4861 37.4303 13.4738 37.4785 13.4609C37.4303 13.4738 37.3818 13.4861 37.333 13.498ZM83.793 13.498C83.8417 13.486 83.8903 13.4738 83.9385 13.4609C83.8903 13.4738 83.8417 13.486 83.793 13.498ZM99.9092 13.498C99.958 13.486 100.006 13.4738 100.055 13.4609C100.006 13.4738 99.958 13.486 99.9092 13.498ZM3.57715 13.4365C3.65061 13.4562 3.72449 13.4747 3.79883 13.4922C3.72449 13.4747 3.65061 13.4562 3.57715 13.4365ZM7.97852 13.4912C8.01358 13.482 8.04827 13.4717 8.08301 13.4619C8.04827 13.4717 8.01358 13.482 7.97852 13.4912ZM55.2217 13.4775C55.2474 13.4678 55.2728 13.4574 55.2979 13.4463C55.2728 13.4575 55.2474 13.4678 55.2217 13.4775ZM71.2676 13.4609C71.2848 13.4667 71.302 13.4722 71.3193 13.4775C71.302 13.4722 71.2848 13.4667 71.2676 13.4609ZM108.33 13.4385C108.357 13.4522 108.385 13.4648 108.413 13.4766C108.385 13.4648 108.357 13.4522 108.33 13.4385ZM135.133 13.4766C135.151 13.4685 135.168 13.4602 135.186 13.4512C135.168 13.4602 135.151 13.4685 135.133 13.4766ZM63.1865 13.4404C63.2113 13.4526 63.2367 13.464 63.2627 13.4746C63.2367 13.4641 63.2113 13.4526 63.1865 13.4404ZM15.3154 13.4678C15.3372 13.4587 15.3589 13.4497 15.3799 13.4395C15.3589 13.4497 15.3372 13.4587 15.3154 13.4678ZM119.884 13.4385C119.903 13.4479 119.922 13.4563 119.941 13.4648C119.922 13.4563 119.903 13.4479 119.884 13.4385ZM14.2305 13.4453C14.2428 13.4513 14.255 13.4573 14.2676 13.4629C14.255 13.4573 14.2428 13.4513 14.2305 13.4453ZM64.3184 13.4629C64.3338 13.4562 64.3492 13.4496 64.3643 13.4424C64.3492 13.4496 64.3338 13.4562 64.3184 13.4629ZM8.18262 13.4336C8.22881 13.4197 8.27477 13.4056 8.32031 13.3906C8.27477 13.4056 8.22881 13.4197 8.18262 13.4336ZM115.27 13.4336C115.277 13.43 115.285 13.4265 115.293 13.4229C115.285 13.4265 115.277 13.43 115.27 13.4336ZM135.226 13.4297C135.241 13.421 135.255 13.4118 135.27 13.4023C135.255 13.4118 135.241 13.421 135.226 13.4297ZM108.23 13.3809C108.256 13.397 108.281 13.4125 108.308 13.4268C108.281 13.4125 108.256 13.397 108.23 13.3809ZM32.9209 13.376C32.9774 13.3935 33.0345 13.4095 33.0918 13.4258C33.0345 13.4095 32.9774 13.3935 32.9209 13.376ZM55.3428 13.4258C55.3592 13.4178 55.3756 13.41 55.3916 13.4014C55.3756 13.41 55.3592 13.4178 55.3428 13.4258ZM63.0859 13.3838C63.1094 13.3985 63.1334 13.4127 63.1582 13.4258C63.1334 13.4127 63.1094 13.3985 63.0859 13.3838ZM72.5693 13.4258C72.5779 13.421 72.5863 13.4161 72.5947 13.4111C72.5864 13.4161 72.5779 13.421 72.5693 13.4258ZM37.6133 13.4229C37.6848 13.4023 37.756 13.382 37.8262 13.3594C37.756 13.382 37.6848 13.4023 37.6133 13.4229ZM79.3809 13.376C79.4335 13.3923 79.4867 13.4076 79.54 13.4229C79.4867 13.4076 79.4335 13.3923 79.3809 13.376ZM95.4971 13.376C95.5497 13.3923 95.6029 13.4076 95.6562 13.4229C95.6029 13.4076 95.5497 13.3923 95.4971 13.376ZM15.416 13.4209C15.4408 13.4078 15.4647 13.3936 15.4883 13.3789C15.4647 13.3936 15.4408 13.4078 15.416 13.4209ZM84.0811 13.4209C84.1493 13.4011 84.2171 13.3809 84.2842 13.3594C84.2171 13.3809 84.1493 13.4011 84.0811 13.4209ZM100.197 13.4209C100.266 13.401 100.335 13.3812 100.402 13.3594C100.335 13.3812 100.266 13.401 100.197 13.4209ZM119.782 13.3809C119.804 13.3948 119.827 13.4074 119.85 13.4199C119.827 13.4074 119.804 13.3947 119.782 13.3809ZM64.416 13.416C64.4366 13.4048 64.4568 13.3932 64.4766 13.3809C64.4568 13.3932 64.4366 13.4048 64.416 13.416ZM3.19727 13.3232C3.26699 13.3464 3.33741 13.3678 3.4082 13.3887C3.33741 13.3678 3.26699 13.3464 3.19727 13.3232ZM72.6318 13.3867C72.6388 13.382 72.6455 13.377 72.6523 13.3721C72.6455 13.377 72.6388 13.382 72.6318 13.3867ZM71.0117 13.3574C71.0298 13.366 71.0481 13.3737 71.0664 13.3818C71.0481 13.3737 71.0298 13.366 71.0117 13.3574ZM135.31 13.374C135.321 13.3655 135.332 13.3566 135.344 13.3477C135.332 13.3566 135.321 13.3655 135.31 13.374ZM108.149 13.3232C108.171 13.3397 108.192 13.3551 108.215 13.3701C108.192 13.3551 108.171 13.3397 108.149 13.3232ZM62.9971 13.3223C63.0167 13.3375 63.0368 13.3523 63.0576 13.3662C63.0368 13.3523 63.0167 13.3375 62.9971 13.3223ZM8.39453 13.3652C8.43096 13.3527 8.46696 13.3394 8.50293 13.3262C8.46696 13.3394 8.43096 13.3527 8.39453 13.3652ZM55.4551 13.3652C55.464 13.3599 55.4727 13.3542 55.4814 13.3486C55.4727 13.3542 55.464 13.3599 55.4551 13.3652ZM15.5137 13.3633C15.534 13.3498 15.5539 13.3359 15.5732 13.3213C15.5539 13.3359 15.534 13.3498 15.5137 13.3633ZM64.5098 13.3594C64.5259 13.3486 64.5412 13.3368 64.5566 13.3252C64.5412 13.3368 64.5259 13.3486 64.5098 13.3594ZM14.0469 13.335C14.0572 13.3426 14.0675 13.3502 14.0781 13.3574C14.0675 13.3502 14.0572 13.3426 14.0469 13.335ZM119.7 13.3232C119.712 13.332 119.724 13.3403 119.735 13.3486C119.724 13.3403 119.712 13.332 119.7 13.3232ZM72.6934 13.3408C72.7042 13.3318 72.7144 13.3221 72.7246 13.3125C72.7144 13.3221 72.7042 13.3318 72.6934 13.3408ZM37.916 13.3291C37.9856 13.3057 38.0548 13.2822 38.123 13.2568C38.0548 13.2822 37.9856 13.3057 37.916 13.3291ZM84.376 13.3291C84.445 13.3059 84.5134 13.282 84.5811 13.2568C84.5134 13.282 84.445 13.3059 84.376 13.3291ZM100.492 13.3291C100.565 13.3045 100.638 13.2797 100.71 13.2529C100.638 13.2797 100.565 13.3045 100.492 13.3291ZM115.464 13.3281C115.467 13.3261 115.47 13.3233 115.473 13.3213C115.47 13.3233 115.467 13.3261 115.464 13.3281ZM79.0625 13.2686C79.1168 13.2883 79.1714 13.3077 79.2266 13.3262C79.1714 13.3077 79.1168 13.2883 79.0625 13.2686ZM95.1699 13.2656C95.2271 13.2865 95.2847 13.3067 95.3428 13.3262C95.2847 13.3067 95.2271 13.2865 95.1699 13.2656ZM32.6025 13.2686C32.6523 13.2866 32.7024 13.3042 32.7529 13.3213C32.7024 13.3042 32.6523 13.2866 32.6025 13.2686ZM135.391 13.3086C135.4 13.3002 135.409 13.2919 135.418 13.2832C135.409 13.2919 135.4 13.3002 135.391 13.3086ZM55.543 13.3066C55.5595 13.2949 55.5757 13.2829 55.5918 13.2705C55.5757 13.2829 55.5595 13.2949 55.543 13.3066ZM107.912 13.0703C107.972 13.1589 108.044 13.238 108.126 13.3057C108.044 13.238 107.972 13.1589 107.912 13.0703ZM62.8203 13.1504C62.8654 13.206 62.9154 13.2571 62.9707 13.3027C62.9154 13.2571 62.8653 13.206 62.8203 13.1504ZM8.60645 13.2871C8.64344 13.2727 8.68035 13.2584 8.7168 13.2432C8.68035 13.2584 8.64343 13.2727 8.60645 13.2871ZM15.6162 13.2871C15.6323 13.2736 15.6478 13.2595 15.6631 13.2451C15.6478 13.2595 15.6323 13.2736 15.6162 13.2871ZM64.6055 13.2871C64.6218 13.2735 64.6378 13.2596 64.6533 13.2451C64.6378 13.2596 64.6218 13.2735 64.6055 13.2871ZM72.752 13.2871C72.7626 13.2759 72.7724 13.2639 72.7822 13.252C72.7724 13.2639 72.7626 13.2759 72.752 13.2871ZM119.618 13.2539C119.63 13.2652 119.643 13.2763 119.655 13.2871C119.643 13.2763 119.63 13.2652 119.618 13.2539ZM2.81934 13.1826C2.88516 13.2094 2.95148 13.2352 3.01855 13.2598C2.95148 13.2352 2.88516 13.2094 2.81934 13.1826ZM70.7891 13.2373C70.801 13.2446 70.8131 13.2517 70.8252 13.2588C70.8131 13.2517 70.801 13.2446 70.7891 13.2373ZM55.6191 13.25C55.6421 13.2314 55.6647 13.2123 55.6865 13.1924C55.6647 13.2123 55.6421 13.2314 55.6191 13.25ZM135.452 13.249C135.467 13.233 135.481 13.2163 135.495 13.1992C135.481 13.2163 135.467 13.233 135.452 13.249ZM72.8037 13.2246C72.813 13.212 72.8217 13.199 72.8301 13.1855C72.8217 13.199 72.813 13.212 72.8037 13.2246ZM94.8369 13.1338C94.9091 13.1644 94.9819 13.1943 95.0557 13.2227C94.9819 13.1943 94.9091 13.1644 94.8369 13.1338ZM15.6924 13.2168C15.7096 13.1994 15.7262 13.1816 15.7422 13.1631C15.7262 13.1816 15.7096 13.1994 15.6924 13.2168ZM32.2715 13.1387C32.3346 13.1653 32.3985 13.1909 32.4629 13.2158C32.3985 13.1909 32.3346 13.1653 32.2715 13.1387ZM119.53 13.1631C119.546 13.1813 119.562 13.1987 119.579 13.2158C119.562 13.1987 119.546 13.1813 119.53 13.1631ZM78.7461 13.1445C78.802 13.168 78.8582 13.1908 78.915 13.2129C78.8582 13.1908 78.802 13.168 78.7461 13.1445ZM64.6865 13.2119C64.6988 13.1994 64.711 13.1869 64.7227 13.1738C64.711 13.1869 64.6988 13.1994 64.6865 13.2119ZM115.63 13.2061C115.638 13.1994 115.645 13.1923 115.653 13.1855C115.645 13.1924 115.638 13.1994 115.63 13.2061ZM8.80664 13.2031C8.84558 13.186 8.88459 13.1694 8.92285 13.1514C8.88459 13.1694 8.84558 13.186 8.80664 13.2031ZM100.844 13.2002C100.9 13.1778 100.956 13.1546 101.011 13.1309C100.956 13.1545 100.9 13.1778 100.844 13.2002ZM38.2773 13.1963C38.3296 13.1754 38.3812 13.1538 38.4326 13.1318C38.3812 13.1538 38.3296 13.1754 38.2773 13.1963ZM84.7539 13.1895C84.7979 13.1717 84.8414 13.1533 84.8848 13.1348C84.8414 13.1533 84.7979 13.1717 84.7539 13.1895ZM135.513 13.1768C135.524 13.1621 135.535 13.1471 135.545 13.1318C135.535 13.1471 135.524 13.1621 135.513 13.1768ZM55.7109 13.1699C55.7327 13.1491 55.7539 13.1276 55.7744 13.1055C55.7539 13.1276 55.7327 13.1491 55.7109 13.1699ZM72.8477 13.1553C72.8557 13.1407 72.8632 13.1258 72.8701 13.1104C72.8632 13.1258 72.8557 13.1407 72.8477 13.1553ZM119.464 13.0771C119.48 13.0998 119.496 13.1222 119.514 13.1436C119.496 13.1222 119.48 13.0998 119.464 13.0771ZM15.7695 13.1299C15.7851 13.1105 15.8002 13.0908 15.8145 13.0703C15.8002 13.0908 15.7851 13.1105 15.7695 13.1299ZM8.97852 13.124C9.0295 13.0992 9.08021 13.0743 9.12988 13.0479C9.08021 13.0743 9.0295 13.0992 8.97852 13.124ZM62.751 13.0547C62.7665 13.0787 62.7836 13.1014 62.8008 13.124C62.7836 13.1014 62.7665 13.0787 62.751 13.0547ZM64.7646 13.124C64.7759 13.1098 64.7863 13.0949 64.7969 13.0801C64.7863 13.0949 64.7759 13.1098 64.7646 13.124ZM70.5693 13.085C70.5829 13.0955 70.5965 13.106 70.6104 13.1162C70.5965 13.106 70.5829 13.0955 70.5693 13.085ZM94.5684 13.0137C94.6296 13.0428 94.6914 13.0712 94.7539 13.0986C94.6914 13.0712 94.6296 13.0428 94.5684 13.0137ZM31.9766 13.0059C32.0428 13.0376 32.11 13.0679 32.1777 13.0977C32.11 13.0679 32.0428 13.0376 31.9766 13.0059ZM78.4521 13.0137C78.5121 13.0422 78.5727 13.0698 78.6338 13.0967C78.5727 13.0697 78.5121 13.0422 78.4521 13.0137ZM55.8594 13.0059C55.8383 13.0332 55.8158 13.0593 55.793 13.085C55.8158 13.0593 55.8383 13.0332 55.8594 13.0059ZM72.9092 12.999C72.9165 12.9697 72.9229 12.9392 72.9268 12.9072L72.9336 12.8047C72.9336 12.7781 72.9313 12.7521 72.9287 12.7266C72.9313 12.7521 72.9326 12.7781 72.9326 12.8047C72.9326 12.875 72.924 12.9398 72.9092 12.999ZM38.5859 13.0635C38.6331 13.0419 38.6802 13.0206 38.7266 12.998C38.6802 13.0206 38.6331 13.0419 38.5859 13.0635ZM101.162 13.0635C101.209 13.0419 101.256 13.0206 101.303 12.998C101.256 13.0206 101.209 13.0419 101.162 13.0635ZM85.0479 13.0625C85.0943 13.0412 85.1408 13.0203 85.1865 12.998C85.1408 13.0203 85.0943 13.0412 85.0479 13.0625ZM115.789 13.0547C115.804 13.0386 115.818 13.0225 115.832 13.0059C115.818 13.0225 115.804 13.0386 115.789 13.0547ZM119.411 12.9951C119.422 13.0138 119.433 13.0319 119.445 13.0498C119.433 13.0319 119.422 13.0138 119.411 12.9951ZM15.8301 13.0469C15.8456 13.0234 15.8602 12.9994 15.874 12.9746C15.8602 12.9994 15.8456 13.0234 15.8301 13.0469ZM62.7002 12.9658C62.7136 12.9916 62.7279 13.0166 62.7432 13.041C62.7279 13.0166 62.7136 12.9916 62.7002 12.9658ZM107.858 12.9805C107.87 13.0012 107.882 13.0212 107.895 13.041C107.882 13.0212 107.87 13.0012 107.858 12.9805ZM64.8291 13.0332C64.8371 13.0207 64.845 13.008 64.8525 12.9951C64.845 13.008 64.8371 13.0207 64.8291 13.0332ZM9.19043 13.0146C9.22242 12.997 9.25376 12.9784 9.28516 12.96C9.25376 12.9784 9.22242 12.997 9.19043 13.0146ZM55.8604 13.002C55.8785 12.9783 55.8963 12.9545 55.9131 12.9297C55.8964 12.9545 55.8785 12.9783 55.8604 13.002ZM31.7139 12.8721C31.7643 12.8991 31.8148 12.9263 31.8662 12.9521C31.8148 12.9263 31.7643 12.8991 31.7139 12.8721ZM78.1719 12.8711C78.2226 12.8983 78.2735 12.9252 78.3252 12.9512C78.2735 12.9252 78.2226 12.8983 78.1719 12.8711ZM94.2881 12.8711C94.3388 12.8983 94.3897 12.9252 94.4414 12.9512C94.3897 12.9252 94.3388 12.8983 94.2881 12.8711ZM70.3613 12.9043C70.376 12.9185 70.3902 12.9334 70.4053 12.9473C70.3902 12.9334 70.376 12.9185 70.3613 12.9043ZM119.359 12.8936C119.367 12.9113 119.375 12.9291 119.384 12.9463C119.375 12.9291 119.367 12.9113 119.359 12.8936ZM15.8926 12.9424C15.9045 12.9193 15.9144 12.8952 15.9248 12.8711C15.9144 12.8952 15.9045 12.9193 15.8926 12.9424ZM107.81 12.8799C107.818 12.9005 107.828 12.9205 107.838 12.9404C107.828 12.9205 107.818 12.9005 107.81 12.8799ZM64.8838 12.9385C64.8905 12.9254 64.8961 12.9118 64.9023 12.8984C64.8961 12.9118 64.8905 12.9254 64.8838 12.9385ZM62.6533 12.8643C62.6633 12.8889 62.6741 12.9129 62.6855 12.9365C62.6741 12.9129 62.6633 12.8889 62.6533 12.8643ZM38.8711 12.9248C38.9167 12.9012 38.962 12.8771 39.0068 12.8525C38.962 12.8771 38.9167 12.9012 38.8711 12.9248ZM85.3311 12.9248C85.3806 12.8991 85.4299 12.8735 85.4785 12.8467C85.4299 12.8735 85.3806 12.8991 85.3311 12.9248ZM101.447 12.9248C101.497 12.8991 101.546 12.8735 101.595 12.8467C101.546 12.8735 101.497 12.8991 101.447 12.9248ZM135.655 12.9199C135.664 12.8959 135.673 12.8716 135.681 12.8467C135.673 12.8716 135.664 12.8959 135.655 12.9199ZM13.6748 12.8721C13.6803 12.8846 13.6864 12.8969 13.6924 12.9092C13.6864 12.8969 13.6804 12.8846 13.6748 12.8721ZM9.39453 12.8945C9.41768 12.88 9.4401 12.8645 9.46289 12.8496C9.4401 12.8645 9.41768 12.88 9.39453 12.8945ZM55.9365 12.8945C55.9434 12.8837 55.9495 12.8724 55.9561 12.8613C55.9495 12.8724 55.9434 12.8837 55.9365 12.8945ZM119.317 12.7871C119.325 12.8089 119.332 12.8305 119.341 12.8516C119.332 12.8305 119.325 12.8089 119.317 12.7871ZM107.768 12.7627C107.777 12.7923 107.787 12.8212 107.798 12.8496C107.787 12.8212 107.777 12.7923 107.768 12.7627ZM15.9375 12.8418C15.948 12.8156 15.9581 12.789 15.9668 12.7617C15.9581 12.789 15.948 12.8156 15.9375 12.8418ZM64.9307 12.835C64.9363 12.8205 64.9411 12.8058 64.9463 12.791C64.9411 12.8058 64.9363 12.8205 64.9307 12.835ZM135.685 12.8311C135.692 12.806 135.699 12.7808 135.704 12.7549C135.699 12.7808 135.692 12.806 135.685 12.8311ZM62.6094 12.7373C62.5875 12.6593 62.572 12.5771 62.5645 12.4912C62.572 12.5771 62.5875 12.6593 62.6094 12.7373ZM13.6338 12.7627C13.64 12.7815 13.6463 12.8001 13.6533 12.8184C13.6463 12.8001 13.64 12.7815 13.6338 12.7627ZM93.9756 12.6924C94.038 12.7305 94.101 12.7676 94.165 12.8037C94.101 12.7676 94.038 12.7305 93.9756 12.6924ZM77.8799 12.7051C77.9335 12.7375 77.9872 12.7698 78.042 12.8008C77.9872 12.7698 77.9335 12.7375 77.8799 12.7051ZM31.4121 12.7002C31.4669 12.7334 31.5221 12.7661 31.5781 12.7979C31.5221 12.7661 31.4669 12.7334 31.4121 12.7002ZM9.55762 12.7871C9.58928 12.7651 9.62047 12.7426 9.65137 12.7197C9.62048 12.7426 9.58928 12.7651 9.55762 12.7871ZM39.1416 12.7754C39.1982 12.7425 39.2543 12.7092 39.3096 12.6748C39.2543 12.7092 39.1982 12.7425 39.1416 12.7754ZM85.6035 12.7754C85.6563 12.7447 85.7081 12.7127 85.7598 12.6807C85.7081 12.7127 85.6563 12.7447 85.6035 12.7754ZM101.72 12.7754C101.773 12.7447 101.824 12.7127 101.876 12.6807C101.824 12.7127 101.773 12.7447 101.72 12.7754ZM70.2012 12.7344C70.209 12.7435 70.2167 12.7527 70.2246 12.7617C70.2167 12.7527 70.209 12.7435 70.2012 12.7344ZM107.74 12.6572C107.747 12.6891 107.755 12.7203 107.764 12.751C107.755 12.7203 107.747 12.6891 107.74 12.6572ZM119.286 12.6748C119.291 12.6955 119.295 12.7162 119.301 12.7363C119.295 12.7162 119.291 12.6955 119.286 12.6748ZM1.85938 12.6729C1.88894 12.6933 1.91914 12.7127 1.94922 12.7324C1.91915 12.7127 1.88894 12.6933 1.85938 12.6729ZM65.0117 12.4912C65.0046 12.5674 64.9918 12.6408 64.9727 12.7109C64.9917 12.6409 65.0046 12.5674 65.0117 12.4912ZM16.0225 12.4912C16.0153 12.5675 16.0015 12.6408 15.9824 12.7109C16.0015 12.6408 16.0153 12.5675 16.0225 12.4912ZM49.5166 12.1641H49.5176H49.5166ZM9.72559 12.6621C9.75452 12.6396 9.78333 12.6171 9.81152 12.5938C9.78333 12.6171 9.75452 12.6396 9.72559 12.6621ZM93.7236 12.5303C93.7835 12.5708 93.8438 12.6108 93.9053 12.6494C93.8438 12.6108 93.7835 12.5708 93.7236 12.5303ZM31.1475 12.5303C31.2061 12.57 31.265 12.6096 31.3252 12.6475C31.265 12.6096 31.2061 12.57 31.1475 12.5303ZM77.6182 12.5381C77.6707 12.5735 77.7235 12.6086 77.7773 12.6426C77.7235 12.6086 77.6707 12.5735 77.6182 12.5381ZM1.71387 12.5674C1.74159 12.5883 1.76962 12.6087 1.79785 12.6289C1.76962 12.6087 1.74159 12.5883 1.71387 12.5674ZM107.719 12.5195C107.722 12.5566 107.728 12.5932 107.734 12.6289C107.728 12.5931 107.722 12.5567 107.719 12.5195ZM119.262 12.5322C119.265 12.565 119.269 12.5972 119.275 12.6289C119.269 12.5972 119.265 12.565 119.262 12.5322ZM39.3984 12.6191C39.4558 12.5821 39.5125 12.5446 39.5684 12.5059C39.5125 12.5446 39.4558 12.5821 39.3984 12.6191ZM85.873 12.6094C85.9253 12.5754 85.9773 12.5412 86.0283 12.5059C85.9773 12.5412 85.9253 12.5754 85.873 12.6094ZM101.989 12.6094C102.041 12.5758 102.092 12.5418 102.143 12.5068C102.092 12.5418 102.041 12.5758 101.989 12.6094ZM56.1211 12.4668L56.1221 12.4658L56.1211 12.4668ZM70.0605 12.5557H70.0615H70.0605ZM9.87695 12.5381C9.91063 12.5089 9.94405 12.4796 9.97656 12.4492C9.94405 12.4796 9.91062 12.5089 9.87695 12.5381ZM119.254 12.3955C119.254 12.4372 119.255 12.4783 119.259 12.5186C119.255 12.4783 119.254 12.4372 119.254 12.3955ZM135.685 12.2051C135.713 12.302 135.728 12.4052 135.729 12.5127C135.728 12.4052 135.713 12.302 135.685 12.2051ZM1.55664 12.4434C1.58051 12.4632 1.60461 12.4827 1.62891 12.502C1.60461 12.4827 1.58051 12.4632 1.55664 12.4434ZM30.876 12.3359C30.9341 12.3801 30.9928 12.4236 31.0527 12.4658C30.9928 12.4236 30.9341 12.3801 30.876 12.3359ZM77.2959 12.3066C77.3668 12.3613 77.4392 12.4141 77.5127 12.4658C77.4392 12.4141 77.3668 12.3613 77.2959 12.3066ZM93.4521 12.3359C93.5103 12.3801 93.569 12.4236 93.6289 12.4658C93.569 12.4236 93.5103 12.3801 93.4521 12.3359ZM39.6572 12.4424C39.7161 12.4 39.7739 12.3567 39.8311 12.3125C39.7739 12.3567 39.7161 12.4 39.6572 12.4424ZM86.1348 12.4297C86.1855 12.3929 86.2357 12.3556 86.2852 12.3174C86.2357 12.3556 86.1855 12.3929 86.1348 12.4297ZM102.277 12.4102C102.316 12.3815 102.355 12.3527 102.394 12.3232C102.355 12.3527 102.316 12.3815 102.277 12.4102ZM10.0273 12.4004C10.0534 12.375 10.0792 12.3494 10.1045 12.3232C10.0792 12.3494 10.0534 12.375 10.0273 12.4004ZM1.41211 12.3174C1.44007 12.3429 1.46845 12.3679 1.49707 12.3926C1.46845 12.3679 1.44007 12.3429 1.41211 12.3174ZM77.0566 12.1123C77.1269 12.1723 77.1983 12.2311 77.2715 12.2881C77.1984 12.2311 77.1269 12.1723 77.0566 12.1123ZM30.6396 12.1465C30.6932 12.1915 30.7465 12.237 30.8018 12.2803C30.7465 12.237 30.6933 12.1915 30.6396 12.1465ZM93.1768 12.1152C93.2428 12.1716 93.3103 12.2266 93.3789 12.2803C93.3103 12.2266 93.2428 12.1716 93.1768 12.1152ZM1.26758 12.1787C1.28947 12.2008 1.31162 12.2226 1.33398 12.2441C1.31162 12.2226 1.28947 12.2008 1.26758 12.1787ZM39.9209 12.2412C39.9633 12.2071 40.0055 12.1729 40.0469 12.1377C40.0055 12.1729 39.9633 12.2071 39.9209 12.2412ZM10.1855 12.2363C10.207 12.2125 10.2282 12.1885 10.249 12.1641C10.2282 12.1885 10.207 12.2125 10.1855 12.2363ZM86.3887 12.2354C86.4375 12.1959 86.4857 12.1561 86.5332 12.1152C86.4857 12.1561 86.4375 12.1959 86.3887 12.2354ZM102.506 12.2334C102.554 12.1944 102.602 12.1556 102.649 12.1152C102.602 12.1556 102.554 12.1944 102.506 12.2334ZM1.14746 12.0508C1.16496 12.0701 1.18236 12.0895 1.2002 12.1084C1.18236 12.0895 1.16496 12.0701 1.14746 12.0508ZM10.3086 12.0908C10.3356 12.0572 10.3619 12.023 10.3877 11.9883C10.3619 12.023 10.3356 12.0572 10.3086 12.0908ZM30.4766 12.0039C30.505 12.0295 30.5326 12.056 30.5615 12.0811C30.5326 12.056 30.505 12.0295 30.4766 12.0039ZM76.5713 11.6494C76.713 11.8007 76.8625 11.9447 77.0195 12.0811C76.8625 11.9447 76.713 11.8007 76.5713 11.6494ZM86.6201 12.0381C86.6676 11.9957 86.7147 11.953 86.7607 11.9092C86.7147 11.953 86.6676 11.9957 86.6201 12.0381ZM102.736 12.0381C102.784 11.9957 102.831 11.953 102.877 11.9092C102.831 11.953 102.784 11.9957 102.736 12.0381ZM40.1748 12.0254C40.213 11.991 40.2508 11.9562 40.2881 11.9209C40.2508 11.9562 40.213 11.991 40.1748 12.0254ZM70.3301 8.24609C70.7429 8.94056 71.1562 9.63561 71.5869 10.3301V10.3291C71.1563 9.6348 70.7437 8.94039 70.3311 8.24609C70.4429 8.21234 70.5505 8.17492 70.6543 8.13477C70.5503 8.175 70.4422 8.21229 70.3301 8.24609ZM135.594 11.9863C135.585 11.9701 135.575 11.9541 135.565 11.9385C135.575 11.9541 135.585 11.9701 135.594 11.9863ZM0.986328 11.8613C1.01418 11.8964 1.0424 11.931 1.07129 11.9648C1.0424 11.931 1.01418 11.8964 0.986328 11.8613ZM10.4326 11.9277C10.4584 11.8912 10.4834 11.8541 10.5078 11.8164C10.4834 11.8541 10.4584 11.8912 10.4326 11.9277ZM135.533 11.8916C135.526 11.8813 135.518 11.8713 135.511 11.8613C135.518 11.8713 135.526 11.8813 135.533 11.8916ZM92.6875 11.6494C92.7597 11.7265 92.8339 11.8017 92.9102 11.875C92.8339 11.8017 92.7597 11.7265 92.6875 11.6494ZM135.487 11.832C135.475 11.8171 135.462 11.8022 135.449 11.7881C135.462 11.8022 135.475 11.8171 135.487 11.832ZM0.745117 11.5225C0.811052 11.6269 0.881201 11.7267 0.955078 11.8223C0.881204 11.7267 0.811049 11.6269 0.745117 11.5225ZM86.8584 11.8135C86.8958 11.7762 86.9324 11.7384 86.9688 11.7002C86.9324 11.7384 86.8958 11.7762 86.8584 11.8135ZM102.975 11.8135C103.012 11.7762 103.049 11.7384 103.085 11.7002C103.049 11.7384 103.012 11.7762 102.975 11.8135ZM40.4033 11.8086C40.4343 11.7777 40.4648 11.7464 40.4951 11.7148C40.4649 11.7464 40.4343 11.7777 40.4033 11.8086ZM135.42 11.7578C135.407 11.7452 135.393 11.7336 135.38 11.7217C135.393 11.7336 135.407 11.7452 135.42 11.7578ZM10.5527 11.7461C10.5805 11.7007 10.6071 11.6545 10.6328 11.6074C10.6071 11.6545 10.5805 11.7007 10.5527 11.7461ZM135.355 11.7002C135.337 11.6852 135.318 11.6709 135.299 11.6572C135.318 11.6709 135.337 11.6852 135.355 11.7002ZM135.274 11.6406C135.256 11.6286 135.238 11.6173 135.219 11.6064C135.238 11.6173 135.256 11.6286 135.274 11.6406ZM35.6045 11.624L35.3564 11.6299C35.4756 11.6299 35.5925 11.6238 35.707 11.6162C35.673 11.6185 35.6389 11.6224 35.6045 11.624ZM82.167 11.6162C82.0524 11.6238 81.9356 11.6299 81.8164 11.6299L82.0723 11.624C82.1041 11.6225 82.1355 11.6183 82.167 11.6162ZM97.2686 11.5869C97.4011 11.6038 97.5367 11.6175 97.6758 11.624L97.4404 11.6074C97.3825 11.6021 97.3253 11.5941 97.2686 11.5869ZM97.9326 2.58594C95.4612 2.5861 93.8604 4.65423 93.8604 7C93.8604 8.23858 94.2344 9.32898 94.9209 10.1055C95.6037 10.8776 96.6139 11.3603 97.9326 11.3604C99.2401 11.3603 100.236 10.87 100.908 10.0938C101.585 9.31254 101.951 8.22169 101.951 7C101.951 4.65017 100.383 2.58606 97.9326 2.58594ZM98.2832 11.6162C98.1687 11.6238 98.0517 11.6299 97.9326 11.6299C98.0518 11.6299 98.1686 11.6238 98.2832 11.6162ZM34.6924 11.5869C34.8249 11.6038 34.9605 11.6175 35.0996 11.624L34.8643 11.6074C34.8063 11.6021 34.7491 11.5941 34.6924 11.5869ZM81.3096 11.6064L81.3242 11.6074C81.2719 11.6026 81.2203 11.5952 81.1689 11.5889C81.2155 11.5946 81.2622 11.6019 81.3096 11.6064ZM87.0693 11.5918C87.109 11.548 87.1482 11.5039 87.1865 11.459C87.1482 11.5039 87.109 11.548 87.0693 11.5918ZM103.186 11.5918C103.225 11.548 103.264 11.5039 103.303 11.459C103.264 11.5039 103.225 11.548 103.186 11.5918ZM135.191 11.5908C135.173 11.5812 135.155 11.572 135.136 11.5635C135.155 11.572 135.173 11.5812 135.191 11.5908ZM29.9072 11.4189C29.9541 11.4745 30.0029 11.5283 30.0518 11.582C30.0029 11.5283 29.9541 11.4745 29.9072 11.4189ZM10.6523 11.5723C10.6784 11.5232 10.7027 11.4728 10.7266 11.4219C10.7027 11.4728 10.6784 11.5232 10.6523 11.5723ZM40.6279 11.5723C40.66 11.5366 40.6914 11.5003 40.7227 11.4639C40.6914 11.5004 40.66 11.5366 40.6279 11.5723ZM135.097 11.5469C135.079 11.5397 135.06 11.5336 135.042 11.5273C135.06 11.5336 135.079 11.5397 135.097 11.5469ZM76.376 11.4297C76.4081 11.4675 76.4416 11.504 76.4746 11.541C76.4416 11.504 76.4081 11.4675 76.376 11.4297ZM92.4922 11.4297C92.5243 11.4675 92.5578 11.504 92.5908 11.541C92.5578 11.504 92.5243 11.4675 92.4922 11.4297ZM135.006 11.5146C134.982 11.5076 134.958 11.5025 134.934 11.4971C134.958 11.5025 134.982 11.5076 135.006 11.5146ZM0.635742 11.3379C0.663038 11.3869 0.690744 11.4352 0.719727 11.4824C0.690746 11.4352 0.663037 11.3869 0.635742 11.3379ZM10.751 11.3691C10.7722 11.3218 10.7923 11.2736 10.8115 11.2246C10.7923 11.2736 10.7722 11.3218 10.751 11.3691ZM81.8164 2.58594C79.3448 2.58596 77.7441 4.65415 77.7441 7C77.7441 8.23872 78.119 9.32896 78.8057 10.1055C79.4885 10.8776 80.4977 11.3603 81.8164 11.3604C83.124 11.3604 84.1195 10.8701 84.792 10.0938C85.4686 9.31254 85.835 8.22172 85.835 7C85.835 4.6501 84.2666 2.58594 81.8164 2.58594ZM35.3564 2.58594C32.885 2.58612 31.2852 4.65424 31.2852 7C31.2852 8.23872 31.6591 9.32896 32.3457 10.1055C33.0285 10.8776 34.0378 11.3603 35.3564 11.3604C36.664 11.3604 37.6596 10.8701 38.332 10.0938C39.0087 9.31253 39.375 8.22178 39.375 7C39.375 4.6501 37.8066 2.58594 35.3564 2.58594ZM40.8184 11.3496C40.8589 11.2998 40.8985 11.2494 40.9375 11.1982C40.8985 11.2494 40.8589 11.2998 40.8184 11.3496ZM87.2783 11.3496C87.3123 11.3079 87.3451 11.2653 87.3779 11.2227C87.3451 11.2653 87.3122 11.3079 87.2783 11.3496ZM103.407 11.333C103.43 11.3043 103.453 11.2752 103.476 11.2461C103.453 11.2752 103.43 11.3043 103.407 11.333ZM29.7129 11.1768C29.7477 11.2225 29.7843 11.2668 29.8203 11.3115C29.7843 11.2668 29.7477 11.2225 29.7129 11.1768ZM76.1719 11.1758C76.2003 11.2133 76.2305 11.2494 76.2598 11.2861C76.2305 11.2494 76.2003 11.2133 76.1719 11.1758ZM92.2881 11.1758C92.3166 11.2133 92.3467 11.2494 92.376 11.2861C92.3467 11.2494 92.3166 11.2133 92.2881 11.1758ZM10.834 11.167C10.8552 11.1101 10.875 11.0522 10.8936 10.9932C10.875 11.0522 10.8552 11.1101 10.834 11.167ZM41.0068 11.1064C41.0465 11.0522 41.0851 10.9971 41.123 10.9414C41.0851 10.9971 41.0465 11.0522 41.0068 11.1064ZM75.9863 10.918C76.0292 10.981 76.0741 11.0424 76.1191 11.1035C76.0741 11.0424 76.0292 10.981 75.9863 10.918ZM92.1055 10.9219C92.1474 10.9835 92.1913 11.0437 92.2354 11.1035C92.1913 11.0437 92.1474 10.9835 92.1055 10.9219ZM0.431641 10.918H0.432617H0.431641ZM87.4775 11.0908C87.5095 11.0468 87.5404 11.002 87.5713 10.957C87.5404 11.002 87.5095 11.0468 87.4775 11.0908ZM103.599 11.084C103.622 11.0515 103.645 11.0184 103.668 10.9854C103.645 11.0184 103.622 11.0515 103.599 11.084ZM29.5391 10.9355C29.5667 10.9758 29.5955 11.0152 29.624 11.0547C29.5955 11.0152 29.5667 10.9758 29.5391 10.9355ZM10.9971 10.5781C10.9719 10.7089 10.9421 10.8353 10.9053 10.957C10.9421 10.8353 10.9719 10.7089 10.9971 10.5781ZM87.6455 10.8477C87.6775 10.7988 87.7085 10.7492 87.7393 10.6992C87.7085 10.7492 87.6775 10.7988 87.6455 10.8477ZM41.1885 10.8428C41.219 10.796 41.249 10.7489 41.2783 10.7012C41.249 10.7489 41.219 10.796 41.1885 10.8428ZM75.8154 10.6514C75.8545 10.7158 75.8952 10.7791 75.9365 10.8418C75.8952 10.7791 75.8545 10.7158 75.8154 10.6514ZM103.783 10.8145C103.799 10.7893 103.815 10.7637 103.831 10.7383C103.815 10.7637 103.799 10.7893 103.783 10.8145ZM91.9424 10.6689C91.9686 10.7119 91.9962 10.7538 92.0234 10.7959C91.9962 10.7538 91.9686 10.7119 91.9424 10.6689ZM0.375 10.7314C0.379217 10.7491 0.383731 10.7667 0.388672 10.7842C0.383702 10.7667 0.379246 10.7491 0.375 10.7314ZM29.3691 10.6738C29.391 10.7094 29.414 10.7442 29.4365 10.7793C29.414 10.7442 29.391 10.7094 29.3691 10.6738ZM3.26953 10.5674C3.31701 10.6198 3.36894 10.67 3.42285 10.7207C3.36435 10.6657 3.3088 10.6106 3.25781 10.5537L3.26953 10.5674ZM32.2842 10.4355C32.3583 10.5108 32.4363 10.5822 32.5166 10.6514C32.4827 10.6221 32.4489 10.5928 32.416 10.5625L32.2842 10.4355ZM78.8779 10.5654C78.8546 10.5439 78.8324 10.5211 78.8096 10.499C78.8324 10.5211 78.8546 10.5439 78.8779 10.5654ZM87.8213 10.5635C87.8552 10.505 87.8878 10.4456 87.9199 10.3857C87.8878 10.4456 87.8552 10.505 87.8213 10.5635ZM103.938 10.5635C103.962 10.5213 103.985 10.4784 104.009 10.4355C103.985 10.4784 103.962 10.5213 103.938 10.5635ZM41.3672 10.5537C41.3914 10.5119 41.4142 10.4693 41.4375 10.4268C41.4142 10.4693 41.3913 10.5119 41.3672 10.5537ZM75.6611 10.3809C75.6926 10.4392 75.7256 10.4966 75.7588 10.5537C75.7256 10.4966 75.6926 10.4392 75.6611 10.3809ZM91.7773 10.3809C91.8074 10.4365 91.8385 10.4914 91.8701 10.5459C91.8385 10.4914 91.8074 10.4365 91.7773 10.3809ZM0.342773 10.4727H0.341797H0.342773ZM29.2197 10.415C29.2368 10.4463 29.2549 10.4769 29.2725 10.5078C29.2549 10.4769 29.2368 10.4463 29.2197 10.415ZM8.49707 10.3809C8.49963 10.3741 8.50144 10.3671 8.50391 10.3604C8.50144 10.3671 8.49963 10.3741 8.49707 10.3809ZM87.9678 10.2959C88.0036 10.2265 88.0379 10.1561 88.0713 10.085C88.0379 10.1561 88.0036 10.2265 87.9678 10.2959ZM41.5146 10.2832C41.5417 10.2305 41.5671 10.1768 41.5928 10.123C41.5671 10.1768 41.5417 10.2305 41.5146 10.2832ZM104.09 10.2832C104.115 10.2336 104.14 10.1833 104.164 10.1328C104.14 10.1833 104.115 10.2336 104.09 10.2832ZM75.5117 10.085C75.5388 10.1422 75.567 10.1987 75.5957 10.2549C75.567 10.1987 75.5388 10.1422 75.5117 10.085ZM91.6279 10.085C91.655 10.1422 91.6832 10.1987 91.7119 10.2549C91.6833 10.1987 91.655 10.1422 91.6279 10.085ZM29.0635 10.1084C29.0841 10.1514 29.1055 10.1939 29.127 10.2363C29.1055 10.1939 29.0841 10.1514 29.0635 10.1084ZM8.58203 10.04C8.57495 10.0933 8.56535 10.1446 8.55371 10.1943C8.56507 10.1458 8.57501 10.0958 8.58203 10.0439V10.04ZM116.683 4.58691C116.007 6.42892 115.315 8.26915 114.642 10.0986C115.315 8.26901 116.007 6.42906 116.683 4.58691ZM11.0742 9.74219H11.0752H11.0742ZM41.6504 10.002C41.6833 9.92927 41.7147 9.85567 41.7451 9.78125C41.7147 9.85567 41.6833 9.92927 41.6504 10.002ZM75.3799 9.78711C75.4098 9.85964 75.4413 9.93108 75.4736 10.002C75.4413 9.93108 75.4098 9.85964 75.3799 9.78711ZM88.1104 10.002C88.1432 9.92927 88.1747 9.85566 88.2051 9.78125C88.1747 9.85566 88.1432 9.92927 88.1104 10.002ZM91.4961 9.78711C91.526 9.85964 91.5575 9.93108 91.5898 10.002C91.5576 9.93109 91.526 9.85964 91.4961 9.78711ZM104.235 9.98145C104.256 9.93536 104.275 9.88857 104.295 9.8418C104.275 9.88857 104.256 9.93536 104.235 9.98145ZM28.9258 9.7998C28.9476 9.85236 28.9701 9.90438 28.9932 9.95605C28.9701 9.90438 28.9476 9.85236 28.9258 9.7998ZM0.588867 9.75391H0.589844H0.588867ZM31.6992 9.6748C31.7256 9.71895 31.7524 9.7627 31.7803 9.80566C31.7524 9.7627 31.7256 9.71895 31.6992 9.6748ZM41.7705 9.71973C41.8016 9.64135 41.8301 9.56167 41.8584 9.48145C41.8301 9.56167 41.8016 9.64135 41.7705 9.71973ZM88.2305 9.71973C88.2615 9.64136 88.2901 9.56167 88.3184 9.48145C88.2901 9.56166 88.2615 9.64136 88.2305 9.71973ZM75.2607 9.47559C75.2873 9.5506 75.3148 9.62486 75.3438 9.69824C75.3148 9.62486 75.2873 9.5506 75.2607 9.47559ZM91.3867 9.50391C91.4102 9.56932 91.4346 9.63407 91.46 9.69824C91.4346 9.63407 91.4102 9.56932 91.3867 9.50391ZM104.354 9.69824C104.374 9.64833 104.392 9.59754 104.41 9.54688C104.392 9.59754 104.374 9.64832 104.354 9.69824ZM28.8164 9.51758C28.835 9.56909 28.8543 9.62016 28.874 9.6709C28.8542 9.62016 28.835 9.56909 28.8164 9.51758ZM94.1562 9.46387C94.1829 9.51474 94.2108 9.56477 94.2393 9.61426C94.2108 9.56477 94.1829 9.51474 94.1562 9.46387ZM2.49609 9.54688C2.50181 9.55255 2.50707 9.55867 2.5127 9.56445C2.50691 9.55851 2.50198 9.55174 2.49609 9.5459C2.47371 9.51927 2.45002 9.49401 2.42578 9.46973L2.49609 9.54688ZM41.8887 9.39648C41.9115 9.32885 41.9323 9.2603 41.9531 9.19141C41.9323 9.2603 41.9115 9.32885 41.8887 9.39648ZM75.1631 9.17578C75.1855 9.25007 75.2087 9.32367 75.2334 9.39648C75.2087 9.32367 75.1855 9.25006 75.1631 9.17578ZM88.4404 9.09961C88.4649 9.01429 88.4874 8.92798 88.5088 8.84082C88.4874 8.92798 88.4649 9.0143 88.4404 9.09961ZM104.468 9.38477C104.477 9.35787 104.485 9.33081 104.494 9.30371C104.485 9.33081 104.477 9.35786 104.468 9.38477ZM91.2861 9.19727C91.3036 9.2546 91.321 9.31171 91.3398 9.36816C91.321 9.31171 91.3036 9.2546 91.2861 9.19727ZM28.7168 9.21875C28.7297 9.26058 28.7422 9.30239 28.7559 9.34375C28.7422 9.30239 28.7297 9.26058 28.7168 9.21875ZM1.84082 9.19629C1.9264 9.20488 2.00377 9.22194 2.07422 9.24609C2.00378 9.22192 1.9264 9.20489 1.84082 9.19629ZM42.124 8.50391C42.0855 8.70139 42.039 8.89438 41.9854 9.08301C42.039 8.89438 42.0855 8.7014 42.124 8.50391ZM75.0801 8.87598C75.0955 8.93694 75.111 8.99757 75.1279 9.05762C75.111 8.99757 75.0955 8.93694 75.0801 8.87598ZM91.1963 8.87598C91.2117 8.93694 91.2272 8.99757 91.2441 9.05762C91.2272 8.99757 91.2117 8.93694 91.1963 8.87598ZM28.6211 8.87598C28.6351 8.93131 28.6488 8.98644 28.6641 9.04102C28.6488 8.98644 28.6351 8.93131 28.6211 8.87598ZM31.3008 8.8125C31.3081 8.83387 31.3166 8.85477 31.3242 8.87598C31.3059 8.82469 31.2882 8.77297 31.2715 8.7207L31.3008 8.8125ZM102.038 8.46289C102.049 8.4194 102.062 8.37607 102.072 8.33203C102.062 8.37607 102.049 8.4194 102.038 8.46289ZM88.6465 8.13281C88.6164 8.3438 88.578 8.55026 88.5312 8.75195C88.578 8.55026 88.6164 8.34381 88.6465 8.13281ZM104.647 8.75195C104.666 8.67012 104.683 8.58729 104.699 8.50391C104.683 8.5873 104.666 8.67012 104.647 8.75195ZM28.541 8.52148C28.5559 8.59628 28.5708 8.67062 28.5879 8.74414C28.5708 8.67062 28.5559 8.59628 28.541 8.52148ZM75 8.52148C75.0149 8.59628 75.0298 8.67062 75.0469 8.74414C75.0298 8.67062 75.0149 8.59627 75 8.52148ZM91.1162 8.52148C91.1311 8.59628 91.146 8.67062 91.1631 8.74414C91.146 8.67062 91.1311 8.59627 91.1162 8.52148ZM54.667 8.49316L54.668 8.49609L54.667 8.49316ZM128.367 6.97852C127.921 7.4791 127.473 7.9789 127.024 8.47754C127.922 7.48047 128.815 6.47933 129.703 5.47559L128.367 6.97852ZM48.1523 8.47754V8.47461V8.47754ZM39.4756 8.41504C39.4791 8.40097 39.4839 8.38718 39.4873 8.37305L39.4951 8.33887C39.4891 8.36443 39.482 8.38966 39.4756 8.41504ZM42.1426 8.41016C42.1552 8.34077 42.1651 8.27061 42.1758 8.2002C42.1651 8.27061 42.1552 8.34077 42.1426 8.41016ZM104.718 8.41016C104.728 8.35586 104.735 8.30102 104.744 8.24609C104.735 8.30103 104.728 8.35586 104.718 8.41016ZM28.4854 8.20117C28.4959 8.27031 28.5062 8.3391 28.5186 8.40723C28.5062 8.3391 28.4959 8.27031 28.4854 8.20117ZM74.9443 8.20117C74.9541 8.26534 74.9632 8.32928 74.9746 8.39258C74.9632 8.32928 74.9541 8.26533 74.9443 8.20117ZM91.0605 8.20117C91.0704 8.26533 91.0794 8.32928 91.0908 8.39258C91.0794 8.32929 91.0704 8.26533 91.0605 8.20117ZM114.03 8.38574C113.967 8.21058 113.903 8.03551 113.839 7.86035C113.903 8.03552 113.967 8.21058 114.03 8.38574ZM102.156 7.89746C102.136 8.03354 102.109 8.16723 102.079 8.29883C102.109 8.16723 102.136 8.03355 102.156 7.89746ZM70.7324 8.10156C70.8052 8.07168 70.8766 8.04182 70.9453 8.00879C70.8766 8.04182 70.8052 8.07168 70.7324 8.10156ZM28.4404 7.86035C28.4479 7.93047 28.4555 8.00018 28.4648 8.06934C28.4555 8.00018 28.4479 7.93048 28.4404 7.86035ZM74.8965 7.83496C74.9046 7.91368 74.9134 7.99183 74.9238 8.06934C74.9134 7.99183 74.9046 7.91367 74.8965 7.83496ZM91.0127 7.83496C91.0208 7.91368 91.0296 7.99183 91.04 8.06934C91.0296 7.99183 91.0208 7.91367 91.0127 7.83496ZM4.4043 7.86328C4.69612 7.91603 4.98923 7.96013 5.27832 7.99707C4.98931 7.96014 4.69604 7.916 4.4043 7.86328ZM42.2588 7.37207C42.2498 7.57362 42.2314 7.77146 42.208 7.96582C42.2314 7.77146 42.2498 7.57363 42.2588 7.37207ZM86.04 7.89746C86.0379 7.91182 86.0355 7.92612 86.0332 7.94043C86.0355 7.92612 86.0379 7.91182 86.04 7.89746ZM71.0908 7.93164C71.1323 7.90943 71.174 7.88864 71.2139 7.86523C71.174 7.88865 71.1323 7.90943 71.0908 7.93164ZM31.0547 7.71094L31.0801 7.89746C31.0693 7.82612 31.0599 7.75417 31.0518 7.68164L31.0547 7.71094ZM39.584 7.86035C39.5915 7.80815 39.6003 7.75592 39.6064 7.70312L39.6074 7.68848C39.6009 7.74618 39.5922 7.80335 39.584 7.86035ZM3.93848 7.77051C4.04438 7.79386 4.15106 7.81444 4.25781 7.83496C4.15107 7.81444 4.04438 7.79385 3.93848 7.77051ZM71.3633 7.77051C71.398 7.74767 71.4324 7.72498 71.4658 7.70117C71.4324 7.72498 71.398 7.74767 71.3633 7.77051ZM104.808 6.30371C104.83 6.53193 104.842 6.7641 104.842 7H104.843C104.843 6.76409 104.83 6.53194 104.808 6.30371ZM3.09863 7.54492C3.1644 7.56607 3.23109 7.58491 3.29785 7.60449C3.23109 7.58492 3.1644 7.56606 3.09863 7.54492ZM71.5938 7.60449C71.6307 7.57536 71.6669 7.54601 71.7021 7.51562C71.6669 7.54602 71.6307 7.57536 71.5938 7.60449ZM102.217 7.2373C102.213 7.3417 102.205 7.44534 102.196 7.54785C102.205 7.44526 102.213 7.34178 102.217 7.2373ZM2.69043 7.40039C2.76867 7.43099 2.84852 7.45838 2.92871 7.48633C2.84852 7.45839 2.76867 7.43098 2.69043 7.40039ZM77.4912 7.47754C77.4914 7.48048 77.492 7.48339 77.4922 7.48633C77.4916 7.47852 77.4908 7.47071 77.4902 7.46289L77.4912 7.47754ZM93.6074 7.47754C93.6077 7.48048 93.6082 7.48339 93.6084 7.48633C93.6078 7.47852 93.607 7.47071 93.6064 7.46289L93.6074 7.47754ZM71.7959 7.42969C71.8371 7.39108 71.8783 7.35292 71.917 7.3125C71.8783 7.35292 71.8371 7.39107 71.7959 7.42969ZM2.2959 7.23047C2.31688 7.24052 2.33819 7.24996 2.35938 7.25977C2.33819 7.24996 2.31689 7.24051 2.2959 7.23047ZM71.9922 7.22949C72.0281 7.18918 72.0631 7.14838 72.0967 7.10645C72.0631 7.14839 72.0281 7.18918 71.9922 7.22949ZM2.09961 7.13086C2.13804 7.15135 2.17661 7.17181 2.21582 7.19141C2.17661 7.17181 2.13804 7.15134 2.09961 7.13086ZM1.91602 7.02734C1.9559 7.05099 1.99624 7.0741 2.03711 7.09668C1.99624 7.07411 1.95591 7.05099 1.91602 7.02734ZM72.1787 7C72.2104 6.95677 72.2411 6.91294 72.2705 6.86816C72.2411 6.91294 72.2104 6.95677 72.1787 7ZM1.75684 6.92871C1.78911 6.9498 1.82148 6.9709 1.85449 6.99121C1.82147 6.97091 1.78911 6.9498 1.75684 6.92871ZM39.5518 6.00293C39.6103 6.31474 39.6431 6.63503 39.6455 6.95996C39.6431 6.63504 39.6103 6.31473 39.5518 6.00293ZM1.5957 6.81738C1.61906 6.83435 1.6422 6.85167 1.66602 6.86816C1.6422 6.85167 1.61906 6.83434 1.5957 6.81738ZM72.3223 6.78516C72.3544 6.73288 72.3858 6.68018 72.415 6.62598C72.3858 6.68018 72.3544 6.73288 72.3223 6.78516ZM1.44922 6.70605C1.4662 6.71972 1.48372 6.73271 1.50098 6.74609C1.48371 6.73271 1.4662 6.71972 1.44922 6.70605ZM1.27637 6.55664C1.29807 6.57659 1.31954 6.59679 1.3418 6.61621C1.31954 6.5968 1.29807 6.57659 1.27637 6.55664ZM72.4629 6.5332C72.4883 6.48254 72.5121 6.43111 72.5352 6.37891C72.5121 6.43111 72.4883 6.48254 72.4629 6.5332ZM1.14258 6.42676C1.16229 6.44708 1.18189 6.4675 1.20215 6.4873C1.18189 6.4675 1.1623 6.44708 1.14258 6.42676ZM0.994141 6.26172C1.01704 6.28897 1.03967 6.31636 1.06348 6.34277C1.03967 6.31637 1.01704 6.28897 0.994141 6.26172ZM72.5811 6.27051C72.6094 6.20001 72.6368 6.12871 72.6611 6.05566C72.6368 6.12871 72.6094 6.20001 72.5811 6.27051ZM65.2891 6.23242H68.4287C69.0768 6.23232 69.4904 6.06943 69.7461 5.80176C70.0043 5.53128 70.1494 5.10391 70.1494 4.47168C70.1494 3.81092 69.9809 3.38245 69.6992 3.11523C69.415 2.84574 68.966 2.69342 68.3027 2.69336H65.2891V6.23242ZM53.5186 4.2041H53.5195H53.5186ZM0.882812 6.12109C0.899619 6.14371 0.916197 6.1664 0.933594 6.18848C0.916193 6.1664 0.899623 6.14371 0.882812 6.12109ZM8.19043 6.1084C8.26368 6.1336 8.33644 6.15924 8.4082 6.18652C8.19288 6.10463 7.97032 6.03272 7.74316 5.96875L8.19043 6.1084ZM104.788 6.13574C104.781 6.07593 104.774 6.01626 104.766 5.95703C104.774 6.01625 104.781 6.07593 104.788 6.13574ZM112.721 4.86328C112.88 5.28123 113.038 5.69924 113.194 6.11719L112.722 4.86328C112.599 4.54278 112.483 4.22177 112.366 3.90234C112.483 4.22173 112.598 4.54283 112.721 4.86328ZM0.761719 5.94531C0.777562 5.97022 0.793058 5.99523 0.80957 6.01953C0.793054 5.99523 0.777566 5.97022 0.761719 5.94531ZM72.6787 6.00293C72.7002 5.93532 72.7191 5.86651 72.7373 5.79688C72.7191 5.86651 72.7002 5.93532 72.6787 6.00293ZM104.729 5.74219C104.723 5.70667 104.718 5.67103 104.711 5.63574C104.718 5.67103 104.723 5.70667 104.729 5.74219ZM72.7578 5.71973C72.7761 5.64408 72.7911 5.56711 72.8057 5.48926C72.7911 5.56711 72.7761 5.64408 72.7578 5.71973ZM39.4844 5.69043C39.4699 5.63301 39.4538 5.57618 39.4375 5.51953C39.4538 5.57618 39.4699 5.63301 39.4844 5.69043ZM0.553711 5.55664C0.57221 5.5985 0.590207 5.64023 0.610352 5.68066C0.590202 5.64023 0.572215 5.5985 0.553711 5.55664ZM134.077 4.16895C133.88 4.39148 133.678 4.61004 133.477 4.82812C133.679 4.61004 133.881 4.39157 134.078 4.16895C134.11 4.13565 134.141 4.1009 134.173 4.06738C134.141 4.10095 134.109 4.13559 134.077 4.16895ZM4.51367 5.37988C4.65358 5.41451 4.79392 5.44479 4.93164 5.4707C4.79393 5.44478 4.65358 5.41451 4.51367 5.37988ZM72.8516 3.72949C72.8814 3.96327 72.8965 4.21068 72.8965 4.47168C72.8965 4.80396 72.8699 5.12315 72.8174 5.42676C72.8521 5.22594 72.8772 5.01852 72.8887 4.80469C72.8945 4.69524 72.8975 4.58418 72.8975 4.47168C72.8975 4.21065 72.8814 3.96329 72.8516 3.72949ZM104.66 5.40234C104.652 5.36906 104.645 5.33579 104.637 5.30273C104.645 5.33579 104.652 5.36906 104.66 5.40234ZM4.01465 5.23145C4.14281 5.27742 4.27524 5.31786 4.40918 5.35352C4.27525 5.31786 4.14281 5.27741 4.01465 5.23145ZM104.598 5.1543C104.581 5.0937 104.564 5.03344 104.546 4.97363C104.564 5.03344 104.581 5.0937 104.598 5.1543ZM70.377 5.02637C70.3815 4.99864 70.3878 4.97088 70.3916 4.94238L70.3926 4.92871C70.3884 4.96186 70.3822 4.99425 70.377 5.02637ZM104.51 4.86035C104.487 4.78923 104.464 4.71837 104.438 4.64844C104.464 4.71837 104.487 4.78923 104.51 4.86035ZM3.06641 4.64844C3.11389 4.70387 3.16702 4.75569 3.22461 4.80469C3.167 4.7557 3.11391 4.70384 3.06641 4.64844ZM104.385 4.50879C104.365 4.45812 104.346 4.40742 104.325 4.35742C104.346 4.40742 104.365 4.45812 104.385 4.50879ZM2.85352 4.27539C2.88052 4.3583 2.91832 4.43525 2.96387 4.50781C2.91828 4.43525 2.88056 4.35829 2.85352 4.27539ZM70.4121 4.2168H70.4111H70.4121ZM78.5117 3.90234C78.4251 4.01198 78.3441 4.12631 78.2676 4.24414C78.3441 4.12632 78.4251 4.01197 78.5117 3.90234ZM9.02832 4.2041C9.0673 4.2041 9.10669 4.202 9.14551 4.19824C9.10668 4.202 9.0673 4.2041 9.02832 4.2041ZM9.15527 4.19629C9.19026 4.19262 9.22515 4.18822 9.25977 4.18164C9.22515 4.18822 9.19027 4.19262 9.15527 4.19629ZM104.25 4.18555C104.233 4.1483 104.217 4.11107 104.199 4.07422C104.217 4.11107 104.233 4.1483 104.25 4.18555ZM9.29199 4.1748C9.31692 4.16941 9.34161 4.16309 9.36621 4.15625C9.34161 4.16309 9.31693 4.16941 9.29199 4.1748ZM9.41504 4.1416C9.43643 4.13476 9.45748 4.12704 9.47852 4.11914C9.45748 4.12704 9.43644 4.13476 9.41504 4.1416ZM9.51758 4.10352C9.5408 4.09396 9.56426 4.08503 9.58691 4.07422C9.56426 4.08503 9.5408 4.09396 9.51758 4.10352ZM8.38672 4.0293V4.03027V4.0293ZM9.625 4.05371C9.64614 4.04279 9.66698 4.03152 9.6875 4.01953C9.66698 4.03152 9.64614 4.04279 9.625 4.05371ZM9.72559 3.99609C9.74175 3.98593 9.75774 3.97566 9.77344 3.96484C9.75774 3.97566 9.74175 3.98593 9.72559 3.99609ZM9.8291 3.9248C9.84236 3.91463 9.85533 3.9042 9.86816 3.89355C9.85533 3.9042 9.84236 3.91463 9.8291 3.9248ZM104.114 3.90234C104.093 3.86012 104.071 3.81802 104.049 3.77637C104.071 3.81803 104.093 3.86012 104.114 3.90234ZM9.91113 3.85742C9.92636 3.84365 9.94058 3.8289 9.95508 3.81445C9.94057 3.8289 9.92636 3.84365 9.91113 3.85742ZM9.99121 3.77637C10.0064 3.75989 10.0219 3.74379 10.0361 3.72656C10.0219 3.74379 10.0064 3.75989 9.99121 3.77637ZM134.464 3.75586C134.512 3.70246 134.561 3.64866 134.608 3.59473C134.561 3.64863 134.512 3.70248 134.464 3.75586ZM10.0586 3.69824C10.0754 3.67663 10.0913 3.6545 10.1064 3.63184C10.0913 3.6545 10.0754 3.67663 10.0586 3.69824ZM72.833 3.60352C72.8277 3.56872 72.8224 3.53418 72.8164 3.5C72.8224 3.53418 72.8277 3.56872 72.833 3.60352ZM103.952 3.60352C103.932 3.56886 103.912 3.53423 103.892 3.5C103.912 3.53423 103.932 3.56886 103.952 3.60352ZM10.1309 3.59473C10.1406 3.5788 10.1493 3.56227 10.1582 3.5459C10.1493 3.56228 10.1406 3.5788 10.1309 3.59473ZM79.4502 3.02441V3.02539V3.02441ZM33.1143 2.94531C32.8891 3.08667 32.6796 3.24846 32.4873 3.42871C32.6796 3.2485 32.8891 3.08663 33.1143 2.94531ZM10.1797 3.50488C10.1921 3.47961 10.2035 3.45394 10.2139 3.42773C10.2035 3.45395 10.1921 3.47961 10.1797 3.50488ZM10.2256 3.39941C10.2307 3.38538 10.2338 3.37072 10.2383 3.35645C10.2338 3.37073 10.2307 3.38537 10.2256 3.39941ZM72.792 3.37402C72.7853 3.34121 72.7788 3.30859 72.7715 3.27637C72.7788 3.30859 72.7853 3.34121 72.792 3.37402ZM103.806 3.36133C103.777 3.31567 103.747 3.27044 103.717 3.22559C103.747 3.27044 103.777 3.31567 103.806 3.36133ZM95.748 2.9082C95.6244 2.98295 95.5058 3.0646 95.3916 3.15137C95.563 3.02117 95.7449 2.90336 95.9375 2.80078L95.748 2.9082ZM7.38379 3.19336C7.34997 3.16749 7.31596 3.14267 7.28223 3.11816C7.31596 3.14267 7.34998 3.16748 7.38379 3.19336ZM72.749 3.18555C72.738 3.14142 72.7271 3.09768 72.7148 3.05469C72.7271 3.09768 72.738 3.14142 72.749 3.18555ZM112.078 3.125C112.02 2.96859 111.961 2.81257 111.901 2.65723C111.961 2.81259 112.02 2.96857 112.078 3.125ZM103.629 3.09863C103.599 3.05635 103.569 3.01416 103.538 2.97266C103.569 3.01417 103.599 3.05635 103.629 3.09863ZM69.8857 2.91992C69.9302 2.96207 69.9718 3.00698 70.0107 3.05469L69.8867 2.91992C69.8423 2.87778 69.795 2.83841 69.7451 2.80176L69.8857 2.91992ZM72.6895 2.97266C72.6781 2.93589 72.6675 2.89919 72.6553 2.86328C72.6675 2.89919 72.6781 2.93589 72.6895 2.97266ZM103.425 2.8252C103.398 2.79068 103.37 2.75659 103.342 2.72266C103.37 2.75659 103.398 2.79068 103.425 2.8252ZM9.99805 2.37012C10.1104 2.515 10.1949 2.63197 10.2422 2.77344C10.1948 2.6319 10.1103 2.51489 9.99805 2.37012C9.92606 2.28139 9.85068 2.19599 9.77344 2.11328C9.85073 2.19605 9.92602 2.28133 9.99805 2.37012ZM72.6123 2.74512C72.6022 2.7183 72.5927 2.69136 72.582 2.66504C72.5927 2.69136 72.6022 2.7183 72.6123 2.74512ZM135.316 2.73047C135.325 2.71807 135.334 2.7058 135.342 2.69336C135.334 2.7058 135.325 2.71807 135.316 2.73047ZM80.8672 2.41699C80.7171 2.44981 80.5714 2.4913 80.4297 2.53906C80.5714 2.49131 80.7171 2.4498 80.8672 2.41699ZM96.9834 2.41699C96.8333 2.44981 96.6876 2.4913 96.5459 2.53906C96.6876 2.49131 96.8333 2.44981 96.9834 2.41699ZM34.4072 2.41699C34.2571 2.44982 34.1114 2.49129 33.9697 2.53906C34.1114 2.49131 34.2571 2.44981 34.4072 2.41699ZM83.3623 2.60059C83.2988 2.57567 83.2344 2.55211 83.1689 2.53027C83.2344 2.5521 83.2988 2.57567 83.3623 2.60059ZM135.38 2.63184C135.401 2.59832 135.422 2.56518 135.441 2.53125C135.422 2.56517 135.401 2.59833 135.38 2.63184ZM103.241 2.60352C103.201 2.55678 103.16 2.5104 103.118 2.46484C103.16 2.51041 103.201 2.55677 103.241 2.60352ZM72.5381 2.56445C72.5253 2.53552 72.5125 2.50682 72.499 2.47852C72.5124 2.50682 72.5253 2.53552 72.5381 2.56445ZM62.5693 2.28418C62.5628 2.3586 62.5596 2.43481 62.5596 2.5127C62.5596 2.43481 62.5628 2.3586 62.5693 2.28418ZM135.464 2.49121C135.483 2.45562 135.502 2.41995 135.52 2.38379C135.502 2.41995 135.483 2.45562 135.464 2.49121ZM125.274 2.43945C125.312 2.44618 125.351 2.45184 125.391 2.45508L125.499 2.45898C125.421 2.45898 125.346 2.45218 125.274 2.43945ZM36.0518 2.37109C36.1746 2.39055 36.2946 2.41586 36.4121 2.44531C36.2946 2.41585 36.1746 2.39055 36.0518 2.37109ZM82.5117 2.37109C82.6258 2.38916 82.7372 2.41275 82.8467 2.43945C82.7372 2.41275 82.6258 2.38916 82.5117 2.37109ZM98.6279 2.37109C98.742 2.38916 98.8534 2.41275 98.9629 2.43945C98.8534 2.41275 98.742 2.38916 98.6279 2.37109ZM111.402 1.50195C111.457 1.59622 111.508 1.69602 111.555 1.80078C111.645 2.00897 111.728 2.2197 111.812 2.43066C111.778 2.34588 111.746 2.26015 111.712 2.17578L111.555 1.7998C111.509 1.69517 111.457 1.5961 111.402 1.50195ZM125.083 2.3877C125.095 2.39206 125.107 2.39544 125.119 2.39941C125.107 2.39544 125.095 2.39206 125.083 2.3877ZM72.4521 2.38379C72.4368 2.35385 72.4214 2.32413 72.4053 2.29492C72.4214 2.32413 72.4368 2.35385 72.4521 2.38379ZM124.993 2.34961C125.006 2.35558 125.018 2.36071 125.031 2.36621C125.018 2.3607 125.006 2.35558 124.993 2.34961ZM103.021 2.36133C102.978 2.31745 102.936 2.27415 102.893 2.23145C102.936 2.27416 102.978 2.31744 103.021 2.36133ZM81.8164 2.31641V2.31738V2.31641ZM97.9326 2.31641C97.7667 2.31641 97.6045 2.32588 97.4463 2.34277L97.6865 2.32422C97.7676 2.31993 97.8496 2.31739 97.9326 2.31738V2.31641ZM35.3564 2.31641V2.31738V2.31641ZM124.905 2.30176C124.917 2.30881 124.929 2.31566 124.94 2.32227C124.929 2.31566 124.917 2.30881 124.905 2.30176ZM135.55 2.31738C135.562 2.28891 135.575 2.26034 135.586 2.23145C135.575 2.26034 135.562 2.28891 135.55 2.31738ZM124.818 2.24219C124.834 2.2543 124.851 2.26518 124.867 2.27637C124.851 2.26518 124.834 2.25431 124.818 2.24219ZM72.3691 2.23145C72.35 2.19847 72.3307 2.1658 72.3105 2.13379C72.3307 2.1658 72.35 2.19847 72.3691 2.23145ZM124.741 2.17578C124.759 2.19287 124.778 2.2089 124.797 2.22461C124.778 2.2089 124.759 2.19287 124.741 2.17578ZM62.5986 2.06738C62.5916 2.10614 62.5872 2.14568 62.582 2.18555C62.5872 2.14568 62.5916 2.10614 62.5986 2.06738ZM135.612 2.16211C135.622 2.13599 135.63 2.10951 135.638 2.08301C135.63 2.10951 135.622 2.13599 135.612 2.16211ZM124.674 2.10352C124.691 2.12347 124.708 2.14265 124.727 2.16113C124.708 2.14265 124.691 2.12347 124.674 2.10352ZM102.798 2.13965C102.757 2.10131 102.716 2.06369 102.675 2.02637C102.716 2.0637 102.757 2.1013 102.798 2.13965ZM124.627 2.04297C124.637 2.05686 124.647 2.07069 124.657 2.08398C124.647 2.07069 124.637 2.05686 124.627 2.04297ZM121.657 2.06934C121.656 2.01935 121.655 1.97016 121.65 1.92188C121.655 1.97016 121.656 2.01935 121.657 2.06934ZM72.2549 2.0498C72.2406 2.02856 72.2267 2.00713 72.2119 1.98633C72.2267 2.00713 72.2406 2.02856 72.2549 2.0498ZM9.7041 2.04297C9.64603 1.98322 9.58806 1.92371 9.52734 1.86719C9.58805 1.92371 9.64603 1.98322 9.7041 2.04297ZM124.572 1.95703C124.58 1.9716 124.589 1.98596 124.598 2C124.589 1.98595 124.58 1.9716 124.572 1.95703ZM135.664 1.99219C135.668 1.976 135.672 1.95971 135.676 1.94336C135.672 1.95971 135.668 1.976 135.664 1.99219ZM62.6455 1.86719C62.6358 1.90175 62.6282 1.93707 62.6201 1.97266C62.6282 1.93707 62.6358 1.90175 62.6455 1.86719ZM46.627 1.58691V1.58594V1.58691ZM124.521 1.85156C124.531 1.87559 124.542 1.899 124.554 1.92188C124.542 1.899 124.531 1.87559 124.521 1.85156ZM102.545 1.91211C102.509 1.88106 102.472 1.85059 102.435 1.82031C102.472 1.8506 102.509 1.88105 102.545 1.91211ZM72.1396 1.88965C72.1245 1.86994 72.1093 1.85034 72.0938 1.83105C72.1093 1.85034 72.1245 1.86994 72.1396 1.88965ZM9.47363 1.82031C9.40866 1.76151 9.3431 1.70368 9.27539 1.64844C9.34309 1.70369 9.40867 1.76151 9.47363 1.82031ZM121.637 1.82031C121.634 1.79867 121.631 1.77711 121.627 1.75586C121.631 1.77711 121.634 1.79867 121.637 1.82031ZM62.7119 1.66992C62.6986 1.70373 62.6874 1.73847 62.6758 1.77344C62.6874 1.73847 62.6986 1.70373 62.7119 1.66992ZM72.0137 1.73633C71.9982 1.71862 71.9827 1.70093 71.9668 1.68359C71.9827 1.70093 71.9982 1.71861 72.0137 1.73633ZM124.466 1.66895C124.471 1.69173 124.475 1.71429 124.481 1.73633C124.475 1.71429 124.471 1.69173 124.466 1.66895ZM102.309 1.71973C102.268 1.68824 102.227 1.65753 102.186 1.62695C102.227 1.65753 102.268 1.68824 102.309 1.71973ZM121.607 1.66992C121.601 1.64461 121.596 1.61943 121.589 1.59473C121.596 1.61943 121.601 1.64461 121.607 1.66992ZM124.444 1.32812C124.441 1.36047 124.439 1.39338 124.439 1.42676L124.445 1.53809L124.44 1.42676C124.44 1.39111 124.442 1.35575 124.445 1.32129L124.444 1.32812ZM71.8916 1.60449C71.8719 1.58446 71.8523 1.56442 71.832 1.54492C71.8523 1.56442 71.8719 1.58446 71.8916 1.60449ZM62.7891 1.49609C62.774 1.52554 62.7617 1.55642 62.748 1.58691C62.7617 1.55642 62.774 1.52555 62.7891 1.49609ZM9.17773 1.57227C9.12412 1.53061 9.07075 1.48876 9.01562 1.44922C9.07074 1.48876 9.12413 1.5306 9.17773 1.57227ZM102.063 1.53711C102.01 1.49918 101.954 1.46316 101.899 1.42676C101.954 1.46316 102.01 1.49918 102.063 1.53711ZM121.559 1.50293C121.552 1.48426 121.546 1.46554 121.539 1.44727C121.546 1.46554 121.552 1.48426 121.559 1.50293ZM71.7598 1.47754C71.7355 1.45556 71.7105 1.43434 71.6855 1.41309C71.7105 1.43434 71.7355 1.45555 71.7598 1.47754ZM62.8926 1.32031C62.8712 1.35294 62.8515 1.38672 62.832 1.4209C62.8515 1.38671 62.8712 1.35294 62.8926 1.32031ZM52.7588 1.38965C52.7361 1.33538 52.7131 1.28217 52.6865 1.23145C52.7131 1.28217 52.7361 1.33537 52.7588 1.38965ZM25.5195 1.38477C25.5185 1.37922 25.5177 1.37368 25.5166 1.36816C25.5177 1.37368 25.5185 1.37922 25.5195 1.38477ZM8.88965 1.36328C8.83726 1.32791 8.78503 1.29235 8.73145 1.25879C8.78502 1.29236 8.83727 1.3279 8.88965 1.36328ZM71.6182 1.35645C71.5954 1.33813 71.5721 1.32048 71.5488 1.30273C71.5721 1.32048 71.5954 1.33813 71.6182 1.35645ZM101.777 1.34766C101.738 1.32267 101.697 1.29861 101.657 1.27441C101.697 1.29862 101.738 1.32267 101.777 1.34766ZM121.496 1.34766C121.489 1.33218 121.481 1.31691 121.474 1.30176C121.481 1.31691 121.489 1.33218 121.496 1.34766ZM15.999 1.33008C15.9925 1.29952 15.9852 1.26958 15.9766 1.24023C15.9852 1.26958 15.9925 1.29953 15.999 1.33008ZM135.69 1.16309C135.702 1.20849 135.711 1.25543 135.717 1.30371C135.71 1.25543 135.702 1.20849 135.69 1.16309ZM25.499 1.29297C25.4953 1.27863 25.4925 1.26409 25.4883 1.25C25.4925 1.26409 25.4953 1.27862 25.499 1.29297ZM63.0088 1.16309C62.9829 1.19467 62.9584 1.22736 62.9346 1.26074C62.9584 1.22735 62.9829 1.19467 63.0088 1.16309ZM71.4697 1.24414C71.4398 1.22269 71.4097 1.20123 71.3789 1.18066C71.4097 1.20123 71.4398 1.22269 71.4697 1.24414ZM121.436 1.23145C121.42 1.20488 121.404 1.17876 121.388 1.15332C121.404 1.17876 121.42 1.20488 121.436 1.23145ZM15.9668 1.21191C15.9589 1.18751 15.9517 1.16314 15.9424 1.13965C15.9517 1.16313 15.9589 1.18752 15.9668 1.21191ZM111.201 1.20605C111.179 1.17764 111.155 1.15005 111.132 1.12305C111.155 1.15006 111.179 1.17763 111.201 1.20605ZM8.61914 1.19141C8.56324 1.15818 8.50725 1.12509 8.4502 1.09375C8.50725 1.1251 8.56324 1.15817 8.61914 1.19141ZM101.508 1.18555C101.452 1.15385 101.395 1.12393 101.338 1.09375C101.395 1.12394 101.452 1.15385 101.508 1.18555ZM25.4609 1.17188C25.4568 1.16106 25.4527 1.15028 25.4482 1.13965C25.4527 1.15028 25.4568 1.16106 25.4609 1.17188ZM46.4375 1.16016C46.4306 1.14873 46.4241 1.13718 46.417 1.12598C46.4241 1.13718 46.4306 1.14873 46.4375 1.16016ZM52.6436 1.15918C52.6198 1.11844 52.5967 1.07799 52.5703 1.04004C52.5967 1.07799 52.6198 1.11844 52.6436 1.15918ZM71.3164 1.14062C71.2796 1.11716 71.2421 1.09452 71.2041 1.07227C71.2421 1.09453 71.2796 1.11715 71.3164 1.14062ZM135.677 1.11621C135.672 1.09973 135.667 1.08342 135.661 1.06738C135.667 1.08342 135.672 1.09973 135.677 1.11621ZM63.1357 1.02441C63.1095 1.05038 63.0842 1.077 63.0596 1.10449C63.0842 1.07699 63.1095 1.05039 63.1357 1.02441ZM58.7373 1.10059C58.7343 1.09078 58.7318 1.08089 58.7285 1.07129C58.7318 1.0809 58.7343 1.09078 58.7373 1.10059ZM25.4287 1.09668C25.4208 1.07988 25.4129 1.06318 25.4043 1.04688C25.413 1.06318 25.4208 1.07988 25.4287 1.09668ZM121.348 1.09668C121.331 1.07409 121.314 1.05186 121.297 1.03027C121.314 1.05187 121.331 1.07409 121.348 1.09668ZM15.9219 1.09473C15.9124 1.07362 15.9033 1.05251 15.8926 1.03223C15.9033 1.05251 15.9124 1.07362 15.9219 1.09473ZM124.519 1.03809C124.511 1.05554 124.506 1.07381 124.499 1.0918C124.506 1.07381 124.511 1.05553 124.519 1.03809ZM111.076 1.0625C111.057 1.04267 111.039 1.02288 111.02 1.00391C111.039 1.02288 111.057 1.04267 111.076 1.0625ZM46.3691 1.05566C46.3632 1.04724 46.3577 1.03855 46.3516 1.03027C46.3577 1.03855 46.3632 1.04724 46.3691 1.05566ZM71.1611 1.04688C71.1169 1.02175 71.0721 0.997164 71.0264 0.973633C71.0721 0.997166 71.1169 1.02175 71.1611 1.04688ZM101.23 1.03711C101.171 1.00675 101.11 0.977905 101.049 0.949219C101.11 0.977911 101.171 1.00675 101.23 1.03711ZM58.71 1.02441C58.7034 1.00853 58.6969 0.992822 58.6895 0.977539C58.6969 0.992825 58.7034 1.00853 58.71 1.02441ZM8.30273 1.0166C8.25068 0.989904 8.19839 0.963674 8.14551 0.938477C8.19839 0.963684 8.25068 0.989894 8.30273 1.0166ZM135.642 1.0166C135.637 1.00605 135.633 0.995685 135.628 0.985352C135.633 0.995687 135.637 1.00604 135.642 1.0166ZM15.8779 1.00684C15.8648 0.983568 15.8516 0.960557 15.8369 0.938477C15.8516 0.960555 15.8648 0.983569 15.8779 1.00684ZM124.559 0.957031C124.55 0.971953 124.544 0.987534 124.536 1.00293C124.544 0.987534 124.55 0.971951 124.559 0.957031ZM25.377 1C25.3669 0.983106 25.3566 0.966483 25.3457 0.950195C25.3566 0.966479 25.3669 0.983109 25.377 1ZM121.248 0.973633C121.231 0.95498 121.214 0.936744 121.196 0.918945C121.214 0.936747 121.231 0.954976 121.248 0.973633ZM46.3047 0.970703C46.2949 0.958644 46.2855 0.946282 46.2754 0.93457C46.2855 0.946281 46.2949 0.958644 46.3047 0.970703ZM110.983 0.969727C110.96 0.947628 110.936 0.926116 110.911 0.905273C110.936 0.926124 110.96 0.94762 110.983 0.969727ZM63.2695 0.90332C63.244 0.924057 63.2196 0.945794 63.1953 0.967773C63.2196 0.945789 63.244 0.924062 63.2695 0.90332ZM70.9902 0.955078C70.947 0.933396 70.9029 0.912871 70.8584 0.892578C70.9029 0.912873 70.947 0.933395 70.9902 0.955078ZM135.605 0.938477C135.597 0.921173 135.587 0.904283 135.577 0.887695C135.587 0.904287 135.597 0.921168 135.605 0.938477ZM58.6582 0.919922C58.6546 0.913744 58.6512 0.907435 58.6475 0.901367C58.6512 0.907434 58.6546 0.913744 58.6582 0.919922ZM124.616 0.865234C124.604 0.882718 124.592 0.900642 124.581 0.918945C124.592 0.900643 124.604 0.882715 124.616 0.865234ZM25.3193 0.912109C25.3054 0.892998 25.2906 0.87461 25.2754 0.856445C25.2906 0.874601 25.3053 0.893005 25.3193 0.912109ZM15.8145 0.907227C15.7994 0.886238 15.7841 0.865494 15.7676 0.845703C15.7841 0.865493 15.7994 0.886239 15.8145 0.907227ZM52.46 0.899414C52.4525 0.8909 52.4451 0.88234 52.4375 0.874023C52.4451 0.882337 52.4525 0.890903 52.46 0.899414ZM100.936 0.895508C100.881 0.870854 100.824 0.848487 100.769 0.825195C100.824 0.848492 100.881 0.870849 100.936 0.895508ZM46.2285 0.883789C46.2163 0.870897 46.204 0.858112 46.1914 0.845703C46.204 0.858111 46.2163 0.870898 46.2285 0.883789ZM8.00293 0.873047C7.94794 0.848552 7.89267 0.824695 7.83691 0.801758C7.89267 0.824706 7.94795 0.848542 8.00293 0.873047ZM121.141 0.865234C121.124 0.849741 121.106 0.835057 121.088 0.820312C121.106 0.83506 121.124 0.849738 121.141 0.865234ZM135.563 0.865234C135.553 0.848565 135.542 0.832277 135.53 0.816406C135.542 0.832283 135.553 0.848559 135.563 0.865234ZM70.7861 0.860352C70.7447 0.842424 70.7026 0.825366 70.6602 0.808594C70.7026 0.825367 70.7447 0.842422 70.7861 0.860352ZM110.856 0.860352C110.838 0.845668 110.819 0.831365 110.8 0.817383C110.819 0.831371 110.838 0.845661 110.856 0.860352ZM58.6123 0.850586C58.605 0.840617 58.5975 0.830922 58.5898 0.821289C58.5975 0.830918 58.605 0.84062 58.6123 0.850586ZM63.4268 0.788086C63.3973 0.807418 63.368 0.826878 63.3398 0.847656C63.368 0.826873 63.3973 0.807423 63.4268 0.788086ZM124.669 0.796875C124.657 0.811041 124.646 0.825994 124.635 0.84082C124.646 0.825997 124.657 0.811037 124.669 0.796875ZM25.248 0.825195C25.2326 0.808078 25.2167 0.791554 25.2002 0.775391C25.2167 0.791542 25.2326 0.808089 25.248 0.825195ZM15.749 0.824219C15.7317 0.804526 15.7132 0.785969 15.6943 0.767578C15.7131 0.785967 15.7317 0.804527 15.749 0.824219ZM46.1523 0.808594C46.1301 0.788345 46.1074 0.768788 46.084 0.75C46.1074 0.768786 46.1301 0.788346 46.1523 0.808594ZM70.6211 0.792969C70.5768 0.77596 70.5318 0.75992 70.4863 0.744141C70.5318 0.759921 70.5768 0.775958 70.6211 0.792969ZM135.498 0.775391C135.49 0.76504 135.481 0.755069 135.472 0.745117C135.481 0.755074 135.49 0.765035 135.498 0.775391ZM110.735 0.772461C110.717 0.760151 110.699 0.748012 110.68 0.736328C110.699 0.748019 110.717 0.760144 110.735 0.772461ZM121.021 0.767578C121 0.751367 120.977 0.735838 120.954 0.720703C120.977 0.73584 121 0.751365 121.021 0.767578ZM100.618 0.763672C100.577 0.747687 100.536 0.733026 100.494 0.717773C100.536 0.733029 100.577 0.747684 100.618 0.763672ZM124.736 0.725586C124.724 0.737919 124.711 0.750697 124.699 0.763672C124.711 0.750701 124.724 0.737913 124.736 0.725586ZM7.70508 0.749023C7.64429 0.725579 7.58305 0.703298 7.52148 0.681641C7.58305 0.703309 7.6443 0.725568 7.70508 0.749023ZM25.1719 0.748047C25.1576 0.734977 25.1429 0.722324 25.1279 0.709961C25.1429 0.722313 25.1576 0.734989 25.1719 0.748047ZM52.3066 0.748047C52.2992 0.741776 52.2917 0.735598 52.2842 0.729492C52.2917 0.735594 52.2992 0.741781 52.3066 0.748047ZM15.6689 0.743164C15.6531 0.728685 15.6369 0.714748 15.6201 0.701172C15.6369 0.714746 15.6531 0.728687 15.6689 0.743164ZM46.0713 0.740234C46.0509 0.72428 46.03 0.709168 46.0088 0.694336C46.03 0.709167 46.0509 0.724282 46.0713 0.740234ZM63.5977 0.688477C63.5666 0.704641 63.5357 0.720694 63.5059 0.738281C63.5357 0.720689 63.5666 0.704646 63.5977 0.688477ZM58.5059 0.729492C58.491 0.715437 58.4758 0.701582 58.46 0.688477C58.4759 0.701569 58.4909 0.71545 58.5059 0.729492ZM70.4111 0.717773C70.3697 0.704176 70.3275 0.692298 70.2852 0.679688C70.3275 0.692299 70.3697 0.704175 70.4111 0.717773ZM135.438 0.708984C135.428 0.699253 135.418 0.689948 135.407 0.680664C135.418 0.689952 135.428 0.699248 135.438 0.708984ZM124.798 0.670898C124.788 0.67925 124.777 0.687566 124.768 0.696289C124.777 0.687571 124.788 0.679245 124.798 0.670898ZM110.609 0.694336C110.587 0.681572 110.563 0.670087 110.54 0.658203C110.563 0.670096 110.587 0.681563 110.609 0.694336ZM52.2305 0.688477C52.2205 0.681183 52.2104 0.674007 52.2002 0.666992C52.2104 0.674001 52.2205 0.681189 52.2305 0.688477ZM120.894 0.682617C120.867 0.666832 120.84 0.652093 120.812 0.637695C120.84 0.652095 120.867 0.666829 120.894 0.682617ZM25.0791 0.670898C25.0636 0.659528 25.0473 0.649321 25.0312 0.638672C25.0474 0.649309 25.0636 0.65954 25.0791 0.670898ZM15.5801 0.669922C15.562 0.656622 15.5434 0.644123 15.5244 0.631836C15.5434 0.644119 15.562 0.656625 15.5801 0.669922ZM45.958 0.660156C45.9448 0.651777 45.9315 0.643698 45.918 0.635742C45.9315 0.643698 45.9448 0.651778 45.958 0.660156ZM70.2119 0.657227C70.171 0.645724 70.1295 0.635611 70.0879 0.625C70.1295 0.635612 70.171 0.645724 70.2119 0.657227ZM58.4199 0.657227C58.4081 0.648492 58.396 0.640086 58.3838 0.631836C58.3961 0.640074 58.4081 0.648503 58.4199 0.657227ZM63.7822 0.604492C63.7466 0.618816 63.7111 0.632428 63.6768 0.648438C63.7111 0.632423 63.7466 0.618821 63.7822 0.604492ZM100.302 0.648438C100.263 0.635333 100.223 0.623786 100.184 0.611328C100.223 0.623788 100.263 0.63533 100.302 0.648438ZM135.369 0.647461C135.356 0.63684 135.342 0.627108 135.328 0.617188C135.342 0.627113 135.356 0.636834 135.369 0.647461ZM7.38281 0.633789C7.32491 0.614838 7.26649 0.597499 7.20801 0.580078C7.26648 0.59751 7.32492 0.614827 7.38281 0.633789ZM52.1494 0.633789C52.1302 0.62186 52.1107 0.610572 52.0908 0.599609C52.1107 0.61056 52.1302 0.621872 52.1494 0.633789ZM124.871 0.616211C124.863 0.621848 124.855 0.627927 124.847 0.633789C124.855 0.627932 124.863 0.621843 124.871 0.616211ZM110.479 0.626953C110.454 0.615472 110.429 0.605245 110.403 0.594727C110.429 0.605253 110.454 0.615463 110.479 0.626953ZM24.9971 0.616211C24.9761 0.603399 24.9545 0.591677 24.9326 0.580078C24.9545 0.591662 24.9761 0.603415 24.9971 0.616211ZM15.4893 0.609375C15.47 0.597862 15.4499 0.587629 15.4297 0.577148C15.4499 0.587625 15.47 0.597866 15.4893 0.609375ZM120.752 0.606445C120.725 0.59369 120.697 0.582732 120.669 0.571289C120.697 0.582733 120.725 0.593688 120.752 0.606445ZM58.3418 0.604492C58.3316 0.598325 58.321 0.592766 58.3105 0.586914C58.321 0.592756 58.3316 0.598334 58.3418 0.604492ZM45.8613 0.603516C45.8434 0.59402 45.8251 0.584937 45.8066 0.576172C45.8251 0.584936 45.8434 0.594021 45.8613 0.603516ZM70.0068 0.603516C69.9576 0.591798 69.9077 0.581804 69.8574 0.571289C69.9077 0.581804 69.9576 0.591797 70.0068 0.603516ZM135.295 0.59375C135.282 0.585136 135.268 0.577326 135.254 0.569336C135.268 0.57733 135.282 0.585132 135.295 0.59375ZM124.988 0.546875C124.964 0.558843 124.942 0.572335 124.919 0.585938C124.942 0.572349 124.964 0.558829 124.988 0.546875ZM52.0615 0.583008C52.0418 0.57277 52.0213 0.563967 52.001 0.554688C52.0213 0.563957 52.0418 0.572781 52.0615 0.583008ZM63.9717 0.537109C63.9374 0.547411 63.9034 0.5576 63.8701 0.569336C63.9034 0.557596 63.9374 0.547414 63.9717 0.537109ZM110.336 0.567383C110.31 0.557674 110.284 0.548751 110.257 0.540039C110.284 0.548758 110.31 0.557667 110.336 0.567383ZM58.2588 0.55957C58.2456 0.553107 58.2323 0.547009 58.2188 0.541016C58.2323 0.546999 58.2456 0.553118 58.2588 0.55957ZM15.3926 0.557617C15.3703 0.547044 15.3474 0.537652 15.3242 0.52832C15.3474 0.537647 15.3703 0.547048 15.3926 0.557617ZM69.7852 0.555664C69.7215 0.543192 69.657 0.532084 69.5918 0.521484C69.657 0.532085 69.7215 0.543191 69.7852 0.555664ZM99.998 0.553711C99.949 0.539668 99.8992 0.527693 99.8496 0.514648C99.8992 0.527696 99.949 0.539665 99.998 0.553711ZM45.75 0.550781C45.7267 0.540942 45.7028 0.532131 45.6787 0.523438C45.7028 0.532131 45.7267 0.540943 45.75 0.550781ZM120.603 0.544922C120.58 0.536697 120.557 0.529835 120.533 0.522461C120.557 0.529836 120.58 0.536696 120.603 0.544922ZM135.206 0.542969C135.195 0.537387 135.183 0.532539 135.172 0.527344C135.183 0.532541 135.195 0.537385 135.206 0.542969ZM51.9648 0.538086C51.9403 0.527771 51.9151 0.518679 51.8896 0.509766C51.9151 0.518669 51.9403 0.527783 51.9648 0.538086ZM7.04102 0.53125C6.9947 0.518701 6.94797 0.507713 6.90137 0.496094C6.94797 0.507721 6.9947 0.518694 7.04102 0.53125ZM58.1738 0.521484C58.1648 0.517938 58.1556 0.515065 58.1465 0.511719C58.1556 0.515059 58.1648 0.517945 58.1738 0.521484ZM110.195 0.520508C110.164 0.511431 110.133 0.50384 110.101 0.496094C110.133 0.503846 110.164 0.511424 110.195 0.520508ZM69.0605 0.457031C69.238 0.47176 69.4107 0.491717 69.5781 0.518555C69.4107 0.491718 69.238 0.471759 69.0605 0.457031ZM24.7842 0.512695C24.7673 0.506436 24.7498 0.501683 24.7324 0.496094C24.7498 0.501676 24.7673 0.506444 24.7842 0.512695ZM15.2842 0.511719C15.2582 0.502295 15.2312 0.495175 15.2041 0.487305C15.2312 0.495171 15.2582 0.5023 15.2842 0.511719ZM45.6436 0.510742C45.6138 0.500859 45.5836 0.491529 45.5527 0.483398C45.5836 0.491529 45.6138 0.50086 45.6436 0.510742ZM64.1904 0.483398C64.1472 0.49205 64.1043 0.499993 64.0625 0.510742C64.1044 0.49999 64.1472 0.492053 64.1904 0.483398ZM135.118 0.503906C135.099 0.49648 135.079 0.48976 135.059 0.483398C135.079 0.489762 135.099 0.496478 135.118 0.503906ZM125.167 0.476562C125.238 0.455515 125.312 0.440595 125.39 0.433594C125.313 0.4406 125.238 0.455486 125.167 0.476562ZM51.8633 0.5C51.8441 0.493727 51.8244 0.488867 51.8047 0.483398C51.8244 0.488861 51.8441 0.493734 51.8633 0.5ZM110.031 0.479492C110.013 0.475675 109.994 0.473112 109.976 0.469727C109.994 0.473115 110.013 0.475672 110.031 0.479492ZM15.1699 0.476562C15.1466 0.470457 15.1227 0.465885 15.0986 0.460938C15.1227 0.465883 15.1466 0.47046 15.1699 0.476562ZM24.4336 0.435547C24.5159 0.44281 24.5953 0.456286 24.6709 0.476562C24.5952 0.456255 24.516 0.441832 24.4336 0.43457L24.3018 0.429688L24.4336 0.435547ZM135.026 0.473633C135.004 0.467402 134.981 0.461976 134.958 0.457031C134.981 0.461977 135.004 0.4674 135.026 0.473633ZM64.3281 0.458984C64.3109 0.461466 64.2934 0.462041 64.2764 0.464844C64.2934 0.46204 64.3109 0.461466 64.3281 0.458984ZM51.5273 0.433594C51.5865 0.438167 51.6436 0.447135 51.6992 0.458008C51.6436 0.447125 51.5865 0.438168 51.5273 0.433594ZM6.70898 0.449219C6.66779 0.440137 6.62634 0.432206 6.58496 0.423828C6.62634 0.432211 6.66779 0.440131 6.70898 0.449219ZM68.374 0.429688C68.5037 0.429688 68.6315 0.433935 68.7568 0.439453C68.7138 0.437558 68.6705 0.433858 68.627 0.432617L68.375 0.429688H68.374ZM57.7744 0.433594L57.7754 0.432617L57.665 0.429688L57.7744 0.433594ZM99.3369 0.397461C99.2697 0.384893 99.2018 0.375023 99.1338 0.364258C99.2018 0.375025 99.2697 0.38489 99.3369 0.397461ZM98.9951 0.341797C98.913 0.330382 98.8302 0.322243 98.7471 0.313477C98.8302 0.322245 98.913 0.330379 98.9951 0.341797ZM6.05859 0.335938C5.97513 0.325072 5.89138 0.316762 5.80762 0.308594C5.89138 0.316767 5.97513 0.325065 6.05859 0.335938ZM5.7168 0.298828C5.67811 0.295505 5.63931 0.293772 5.60059 0.291016C5.63931 0.293773 5.67811 0.295503 5.7168 0.298828ZM72.8828 13.082C72.8919 13.0589 72.8996 13.0348 72.9062 13.0098C72.8996 13.0348 72.8919 13.0589 72.8828 13.082ZM62.6094 12.7373C62.6182 12.7687 62.6286 12.7991 62.6396 12.8291C62.6287 12.7991 62.6182 12.7687 62.6094 12.7373ZM135.648 12.1025C135.638 12.0763 135.627 12.0504 135.614 12.0254C135.627 12.0504 135.638 12.0763 135.648 12.1025ZM88.3486 9.39648C88.3768 9.31289 88.4026 9.22809 88.4277 9.14258C88.4026 9.22809 88.3768 9.3129 88.3486 9.39648ZM101.912 8.87598C101.926 8.83814 101.939 8.80007 101.951 8.76172C101.939 8.80007 101.926 8.83814 101.912 8.87598ZM101.974 8.68848C101.988 8.64318 102.002 8.59773 102.015 8.55176C102.002 8.59773 101.988 8.64318 101.974 8.68848ZM83.4785 2.64941C83.44 2.63288 83.4015 2.61598 83.3623 2.60059C83.4015 2.61598 83.44 2.63288 83.4785 2.64941ZM125.181 2.41895C125.21 2.42662 125.239 2.43296 125.27 2.43848C125.239 2.43296 125.21 2.42662 125.181 2.41895ZM124.484 1.12988C124.48 1.14362 124.477 1.15786 124.474 1.17188C124.477 1.15786 124.48 1.14362 124.484 1.12988ZM125.075 0.508789C125.047 0.519867 125.02 0.531719 124.993 0.544922C125.02 0.531736 125.047 0.519852 125.075 0.508789ZM125.167 0.476562C125.14 0.484525 125.114 0.493095 125.088 0.50293C125.114 0.49311 125.14 0.484513 125.167 0.476562Z" fill="#0D0C11"/>
</svg>
